<svg version="1.1" id="Layer_1" xmlns="http://www.w3.org/2000/svg" xmlns:xlink="http://www.w3.org/1999/xlink" x="0px" y="0px"
	 width="100%" viewBox="0 0 508 491" enable-background="new 0 0 508 491" xml:space="preserve">
<path fill="#000000" opacity="1.000000" stroke="none" 
	d="
M1.000000,193.000000 
	C1.000000,128.682617 1.000000,64.865242 1.000000,1.023930 
	C170.275055,1.023930 339.550110,1.023930 508.912598,1.023930 
	C508.912598,164.567444 508.912598,328.134949 508.912598,491.851227 
	C339.666779,491.851227 170.333405,491.851227 1.000000,491.851227 
	C1.000000,392.449738 1.000000,292.974884 1.000000,193.000000 
M347.075439,87.368149 
	C347.182068,87.399437 347.288727,87.430733 347.395355,87.462029 
	C347.303436,87.275818 347.211548,87.089600 347.018890,86.434235 
	C346.827789,86.211319 346.636688,85.988403 346.445557,85.765472 
	C346.289459,86.189445 346.133331,86.613419 345.473969,86.661118 
	C344.651917,85.441261 343.829865,84.221405 343.660431,83.004814 
	C344.095367,83.018082 344.530334,83.031349 345.087952,83.281372 
	C345.172211,83.318916 345.256470,83.356461 345.340698,83.394020 
	C345.242584,83.250542 345.144440,83.107063 344.950195,82.303352 
	C343.283356,80.554283 341.616547,78.805214 339.430054,76.590691 
	C338.710907,75.488594 337.529663,74.456528 337.350250,73.272636 
	C336.427704,67.185852 332.614685,64.209251 327.580627,62.868122 
	C327.761536,62.277809 328.218628,61.248352 328.082214,61.162548 
	C325.765320,59.705311 323.374756,58.365181 320.761017,56.571434 
	C320.551636,56.303669 320.282867,56.125324 319.461334,56.054585 
	C319.461334,56.054585 318.968597,56.022606 318.746521,55.592777 
	C318.544525,55.323753 318.280731,55.146889 317.451691,55.087425 
	C317.284027,55.076405 317.116364,55.065388 316.793671,54.746094 
	C316.554443,54.857296 316.315216,54.968498 315.820312,55.480480 
	C315.592529,55.710106 315.325348,55.876556 314.999573,55.437752 
	C314.899567,54.960220 314.799561,54.482693 314.699554,54.005173 
	C314.467773,54.359608 314.235992,54.714039 313.527710,54.680691 
	C313.357971,54.107372 313.188263,53.534054 312.821411,52.531109 
	C312.634949,52.260883 312.384552,52.078392 311.383026,52.023865 
	C310.924683,52.010788 310.466309,51.997715 309.729736,51.379974 
	C306.038849,47.611092 302.501495,43.670189 298.574615,40.165756 
	C297.182770,38.923664 294.842255,38.744663 292.269562,37.955582 
	C290.514648,36.969273 288.759735,35.982964 287.315704,34.555580 
	C286.450348,33.308887 285.726196,31.905184 284.627930,30.917477 
	C284.324402,30.644520 282.907257,31.609873 281.275330,31.897408 
	C277.196045,30.580313 273.116760,29.263216 268.989258,27.250937 
	C268.459625,26.584368 267.929993,25.917801 267.400360,25.251234 
	C266.934204,25.838165 266.468079,26.425097 265.167267,26.990114 
	C262.438019,26.664536 259.708801,26.338957 257.464508,25.535774 
	C258.557770,25.202593 259.651062,24.869413 261.685669,24.249348 
	C252.139801,23.731434 250.682465,24.720613 251.906799,30.712622 
	C250.813339,31.498592 249.600983,32.163456 248.651321,33.095879 
	C246.707047,35.004807 244.903793,37.057384 242.356918,39.017174 
	C241.054489,39.340458 239.752075,39.663738 238.039993,39.319302 
	C235.664246,38.386307 232.564850,38.454552 232.029465,34.975212 
	C231.307144,35.164013 230.301758,35.122097 229.920959,35.589275 
	C229.108353,36.586243 228.619492,37.847092 227.486832,39.236820 
	C226.985245,39.493504 226.483643,39.750187 226.091583,39.252735 
	C226.801804,36.469280 227.512024,33.685825 228.292343,30.439167 
	C227.209259,30.527916 226.126175,30.616663 224.512161,30.863913 
	C224.331940,30.904255 224.151703,30.944599 223.546127,31.216532 
	C223.281097,31.421221 223.100388,31.683914 222.816986,32.761990 
	C221.664246,33.191742 220.405045,34.155643 219.378708,33.951122 
	C216.295654,33.336754 214.577393,34.930897 212.925339,36.508968 
	C211.587387,36.718273 210.249435,36.927578 208.911484,37.136879 
	C209.278107,37.760651 209.644730,38.384418 209.565399,39.507942 
	C207.723480,40.381710 205.881546,41.255474 203.636993,41.624046 
	C202.329773,42.335777 200.816315,42.822487 199.751404,43.798576 
	C195.370117,47.814495 191.223816,52.088890 186.805069,56.061287 
	C181.277771,61.030254 175.567749,65.795937 169.549255,70.991402 
	C169.694641,71.377144 169.840042,71.762886 170.034286,72.615562 
	C170.034286,72.615562 170.106277,73.079491 170.072205,73.552605 
	C170.072205,73.552605 170.024094,74.024498 169.270721,74.024597 
	C163.854584,75.721100 163.969986,81.050209 161.480438,85.603348 
	C160.341354,90.096146 159.202286,94.588936 157.456497,99.114449 
	C157.127487,99.500603 156.798477,99.886757 156.469467,100.272911 
	C156.993942,100.501335 157.518402,100.729767 158.022324,101.798317 
	C155.046036,117.283043 155.362411,132.695511 158.387131,148.125458 
	C158.013718,148.803345 157.640305,149.481247 157.266907,150.159134 
	C157.867416,150.047241 158.467926,149.935349 159.545288,150.412933 
	C160.383667,153.949982 161.222061,157.487030 161.355240,161.004578 
	C160.886627,161.009659 160.418015,161.014725 159.277542,160.759262 
	C155.728790,158.614624 155.684723,162.398834 155.282623,163.701279 
	C154.385361,166.607407 154.358505,169.782242 153.177216,173.257187 
	C153.499893,181.515015 153.822571,189.772827 154.267212,198.788513 
	C157.526749,206.616394 160.468735,214.598953 164.175293,222.209106 
	C166.126358,226.214966 169.964294,228.211624 174.194916,226.636627 
	C176.902374,236.057480 178.813370,245.649292 182.466812,254.523788 
	C185.603790,262.143829 190.732208,268.944000 195.016937,277.020355 
	C194.493515,284.288025 196.420990,291.786346 192.369644,299.134491 
	C188.555862,302.415070 184.742065,305.695648 180.513458,309.101929 
	C180.245132,309.254761 180.078171,309.482056 179.291779,309.876221 
	C175.831467,313.569336 172.371155,317.262451 168.971237,321.001648 
	C168.971237,321.001648 168.950058,320.928711 168.333099,321.197937 
	C164.814728,325.473022 161.296356,329.748108 157.406540,334.159668 
	C157.172836,334.319702 157.041473,334.540558 156.438538,335.056580 
	C155.927628,335.687073 155.416718,336.317566 154.977341,336.963165 
	C154.977341,336.963165 154.973221,336.890167 154.137756,336.946411 
	C152.214569,337.275116 150.229874,337.402222 148.378723,337.966980 
	C139.878113,340.560547 131.414825,343.276428 123.002983,345.987885 
	C123.002983,345.987885 122.959618,345.925476 122.280495,345.982605 
	C121.830193,346.040405 121.379890,346.098206 120.219826,346.339264 
	C97.120064,354.877258 74.050362,363.519257 53.863869,378.095764 
	C42.036694,386.636078 31.824688,396.499908 28.983669,412.713867 
	C29.050947,421.146271 29.118223,429.578644 29.030664,438.841583 
	C29.935364,439.232727 30.837980,439.958618 31.745087,439.964233 
	C43.110058,440.034943 54.475677,439.995209 65.841133,439.995453 
	C202.754974,439.998413 339.668823,440.006561 476.582672,439.963745 
	C478.005981,439.963287 479.429138,439.300079 480.961884,438.025848 
	C480.914612,429.304932 480.867371,420.584045 480.910461,411.125610 
	C476.447937,396.124146 466.654358,385.070770 453.707733,377.184662 
	C441.492126,369.743835 428.836548,362.746552 415.680573,357.200226 
	C399.888947,350.542816 383.378357,345.582733 367.144958,339.986664 
	C362.589600,338.416260 356.994965,338.340271 353.508575,335.544373 
	C348.231537,331.312378 344.325287,325.346344 339.942078,320.030121 
	C332.911224,311.502686 324.705505,304.391998 314.825043,298.391693 
	C313.869690,297.706024 312.914368,297.020386 311.980682,295.359467 
	C311.930420,290.255768 311.880157,285.152069 311.979004,279.312805 
	C315.239685,273.419983 318.733490,267.641144 321.688568,261.598877 
	C324.127563,256.611908 325.929169,251.313202 328.650177,245.904984 
	C328.726593,245.256622 328.803040,244.608246 329.030182,243.601776 
	C329.030182,243.601776 329.020569,243.213379 329.686127,242.880188 
	C329.742188,241.916336 329.798248,240.952499 330.015900,239.606079 
	C330.015900,239.606079 330.016632,239.190796 330.750366,238.782990 
	C331.324738,234.935776 331.899109,231.088577 332.278046,228.550446 
	C334.963104,227.167175 337.036316,226.099091 339.737488,224.783005 
	C347.887665,215.794113 352.216797,205.200165 353.796082,192.728958 
	C353.809021,189.820663 353.821991,186.912354 354.004608,183.608994 
	C354.004608,183.608994 354.039032,183.180420 354.606293,182.970520 
	C354.417511,182.586334 354.228729,182.202133 354.006866,181.390350 
	C354.006866,181.390350 353.838226,180.996048 353.963501,180.080063 
	C353.647003,175.980865 353.330505,171.881683 353.017822,167.387772 
	C353.017822,167.387772 352.862000,167.025101 352.933929,166.462051 
	C352.627838,166.258179 352.321747,166.054291 352.032623,165.126251 
	C351.031799,163.644196 350.030975,162.162155 348.991791,160.154327 
	C348.670593,159.773300 348.349365,159.392273 347.460999,159.029404 
	C347.271881,159.032059 347.082733,159.034698 346.944946,158.260391 
	C347.621429,156.161377 348.297913,154.062363 349.003326,152.638626 
	C349.374481,153.252441 349.745636,153.866257 350.116760,154.480087 
	C350.321808,154.262680 350.724274,153.877289 350.703094,153.852402 
	C350.149963,153.202377 349.552856,152.589737 348.942200,151.300781 
	C349.290283,150.530746 349.638367,149.760727 350.307159,148.819458 
	C350.370056,148.717346 350.510681,148.570877 350.482178,148.520889 
	C350.369476,148.323288 350.203766,148.155945 349.708862,147.374695 
	C349.480286,146.256912 349.251740,145.139114 349.771027,143.984283 
	C350.768860,143.312424 351.766663,142.640579 352.764496,141.968719 
	C351.838287,141.316574 350.912079,140.664413 350.000427,139.155472 
	C349.993347,127.094711 349.986237,115.033958 350.528137,103.211441 
	C351.202606,103.144539 351.877075,103.077637 352.551544,103.010719 
	C351.668488,102.377808 350.785461,101.744896 349.435760,100.533745 
	C348.278046,96.028656 347.120331,91.523567 346.436707,87.055153 
	C346.436707,87.055153 346.907959,87.114761 347.075439,87.368149 
M153.987350,129.548279 
	C154.045044,130.317429 154.102753,131.086563 154.160446,131.855713 
	C154.319122,131.843887 154.477814,131.832077 154.636490,131.820251 
	C154.636490,130.368942 154.636490,128.917618 154.636490,127.466309 
	C154.489197,127.474098 154.341888,127.481888 154.194595,127.489677 
	C154.129486,127.961189 154.064377,128.432693 153.987350,129.548279 
M352.233368,109.103653 
	C352.374023,109.538048 352.489105,109.985260 352.691254,110.388840 
	C352.713745,110.433739 353.231934,110.230347 353.520233,110.142113 
	C353.209991,109.680550 352.899719,109.218987 352.233368,109.103653 
M353.195557,133.504715 
	C352.855804,133.897552 352.501251,134.279968 352.204681,134.703064 
	C352.181122,134.736664 352.559143,135.051727 352.750549,135.235977 
	C353.025299,134.773468 353.300049,134.310959 353.195557,133.504715 
M348.234131,91.090126 
	C348.373932,91.527832 348.490845,91.976624 348.689087,92.386017 
	C348.708832,92.426804 349.224060,92.227638 349.509308,92.139839 
	C349.199310,91.670555 348.889343,91.201271 348.234131,91.090126 
M154.157883,113.219505 
	C154.157883,113.807869 154.157883,114.396225 154.157883,114.984589 
	C154.400894,114.963150 154.643921,114.941704 154.886932,114.920265 
	C154.773102,114.258438 154.659286,113.596603 154.157883,113.219505 
M156.187714,144.090607 
	C156.338318,144.422546 156.488922,144.754471 156.639526,145.086411 
	C156.607132,144.679886 156.574738,144.273376 156.187714,144.090607 
M155.522629,105.683723 
	C155.590363,105.745575 155.658112,105.807426 155.522629,105.683723 
M158.478088,153.291718 
	C158.412582,153.231430 158.347076,153.171143 158.478088,153.291718 
M155.299988,138.844666 
	C155.378387,138.797028 155.456787,138.749390 155.299988,138.844666 
M350.485077,97.577469 
	C350.485077,97.577469 350.432281,97.482597 350.485077,97.577469 
M158.563278,93.512344 
	C158.563278,93.512344 158.483200,93.554123 158.563278,93.512344 
z"/>
<path fill="#0194BB" opacity="1.000000" stroke="none" 
	d="
M29.190125,411.830933 
	C31.824688,396.499908 42.036694,386.636078 53.863869,378.095764 
	C74.050362,363.519257 97.120064,354.877258 120.758972,346.434143 
	C121.851952,346.327850 122.405785,346.126678 122.959625,345.925476 
	C122.959618,345.925476 123.002983,345.987885 123.385315,345.978394 
	C132.083344,343.828186 140.416962,341.753387 148.702591,339.501953 
	C150.869385,338.913239 152.887054,337.775665 154.973221,336.890167 
	C154.973221,336.890167 154.977341,336.963165 155.278000,336.905762 
	C156.056580,336.173004 156.534515,335.497650 157.012421,334.822296 
	C157.041473,334.540558 157.172836,334.319702 157.956146,334.068939 
	C161.987198,329.628357 165.468628,325.278534 168.950043,320.928711 
	C168.950058,320.928711 168.971237,321.001648 169.292145,320.973816 
	C173.079559,317.225250 176.546066,313.504517 180.012573,309.783813 
	C180.078171,309.482056 180.245132,309.254761 181.088638,309.037598 
	C185.555420,306.486755 189.447021,304.000244 194.070953,301.045807 
	C194.070953,311.110565 194.007614,320.198853 194.093277,329.285675 
	C194.150131,335.315735 196.713470,338.821259 202.410736,340.916534 
	C202.881592,341.126465 203.076782,341.332397 203.252441,341.957397 
	C210.344589,347.079987 217.307388,351.971832 224.461441,356.565857 
	C227.551743,358.550293 231.037369,359.919159 234.204391,361.635254 
	C234.065369,361.702850 234.358978,361.606018 234.387146,361.912872 
	C234.926224,362.490753 235.437119,362.761780 235.972595,363.016418 
	C235.997162,363.000000 235.971832,363.053314 236.014618,363.400208 
	C237.485703,365.027374 238.913986,366.307648 240.359802,367.609558 
	C240.377350,367.631256 240.412720,367.674377 240.348923,368.030396 
	C245.092270,378.906006 249.899429,389.425598 254.618347,399.752106 
	C254.491058,399.930023 254.840637,399.588715 255.009171,399.173859 
	C255.321182,398.405731 255.651276,397.611023 255.758987,396.798920 
	C257.565643,383.178741 264.197021,372.260071 274.331635,363.236237 
	C275.364532,362.316498 275.930145,360.872040 276.718323,359.656006 
	C276.724091,359.640900 276.726929,359.607300 277.082825,359.668030 
	C286.429260,354.137878 295.679321,348.916107 304.326569,342.836914 
	C310.995514,338.148499 314.887360,331.546356 313.992096,322.743774 
	C313.338562,316.318329 313.160583,309.832123 313.087646,303.369415 
	C313.071167,301.908447 314.369598,300.432617 315.062744,298.963623 
	C324.705505,304.391998 332.911224,311.502686 339.942078,320.030121 
	C344.325287,325.346344 348.231537,331.312378 353.508575,335.544373 
	C356.994965,338.340271 362.589600,338.416260 367.144958,339.986664 
	C383.378357,345.582733 399.888947,350.542816 415.680573,357.200226 
	C428.836548,362.746552 441.492126,369.743835 453.707733,377.184662 
	C466.654358,385.070770 476.447937,396.124146 480.578735,411.817139 
	C480.107849,421.286591 479.968689,430.064484 479.372620,438.873566 
	C439.926147,438.928040 400.936554,438.967072 361.946991,438.971588 
	C253.309158,438.984192 144.671341,438.988037 36.033527,438.944611 
	C33.961674,438.943787 31.890070,438.318420 29.875980,437.520935 
	C29.962997,435.059021 30.078768,433.057434 30.005846,431.062744 
	C29.771429,424.650787 29.467340,418.241333 29.190125,411.830933 
z"/>
<path fill="#1E1E1E" opacity="1.000000" stroke="none" 
	d="
M343.007812,83.001556 
	C343.829865,84.221405 344.651917,85.441261 345.737610,86.830521 
	C346.001221,86.999916 345.962646,87.018478 345.962646,87.018478 
	C347.120331,91.523567 348.278046,96.028656 349.687500,101.131676 
	C349.952515,102.144135 349.965820,102.558670 349.979126,102.973198 
	C349.986237,115.033958 349.993347,127.094711 349.979919,139.930771 
	C349.647308,141.811157 349.335236,142.916245 349.023163,144.021332 
	C349.251740,145.139114 349.480286,146.256912 349.864014,147.929352 
	C350.008209,148.652924 349.997314,148.821823 349.986450,148.990707 
	C349.638367,149.760727 349.290283,150.530746 348.970642,151.650940 
	C348.999054,152.001114 348.974396,151.963364 348.974396,151.963364 
	C348.297913,154.062363 347.621429,156.161377 346.715210,158.834351 
	C346.323975,159.932953 346.162476,160.457611 345.873688,161.276535 
	C345.511475,162.381317 345.276550,163.191833 345.015076,164.400330 
	C342.387177,176.346649 339.334656,187.744720 333.625610,198.537079 
	C332.209076,195.059586 331.148590,191.600830 331.089050,188.124954 
	C330.877899,175.798828 330.974243,163.466705 331.026489,151.137177 
	C331.047211,146.252960 329.585541,142.168396 326.157104,138.492630 
	C323.006531,135.114807 319.980347,131.410049 317.815674,127.359627 
	C307.735504,108.498230 303.495453,88.526825 307.409454,67.186966 
	C307.580750,66.253014 307.313385,65.238609 307.195496,63.411648 
	C306.007355,64.518723 305.374603,64.847267 305.149628,65.356094 
	C299.492065,78.152733 288.614014,82.301689 275.759125,82.960152 
	C260.506134,83.741455 245.206757,83.876923 229.993256,85.106209 
	C210.157516,86.708992 196.730362,98.440536 187.595078,115.118736 
	C179.914673,129.140762 179.269348,145.033493 178.083435,160.571442 
	C177.287582,170.998810 177.474396,181.498276 176.870026,191.945145 
	C176.710968,194.694778 175.246323,197.368881 174.381226,200.077667 
	C173.799332,199.959595 173.217422,199.841537 172.635513,199.723465 
	C171.749298,196.750015 170.795837,193.794662 169.989136,190.799789 
	C167.317734,180.882233 164.699234,170.950424 162.060455,161.024078 
	C161.222061,157.487030 160.383667,153.949982 159.298950,149.821930 
	C159.047379,148.832047 159.042130,148.433167 159.036865,148.034302 
	C155.362411,132.695511 155.046036,117.283043 158.035553,101.065506 
	C158.053589,99.915703 158.058395,99.498718 158.063217,99.081734 
	C159.202286,94.588936 160.341354,90.096146 162.097366,85.249985 
	C165.150894,81.272583 167.587494,77.648537 170.024094,74.024498 
	C170.024094,74.024498 170.072205,73.552605 170.404694,73.222595 
	C175.531906,68.643143 180.379654,64.451759 185.108276,60.130039 
	C191.437241,54.345726 197.674805,48.461407 203.941757,42.609463 
	C204.039032,42.518623 204.009811,42.292320 204.039642,42.129238 
	C205.881546,41.255474 207.723480,40.381710 210.128021,39.246147 
	C211.463043,38.352242 212.235458,37.720131 213.007874,37.088020 
	C214.577393,34.930897 216.295654,33.336754 219.378708,33.951122 
	C220.405045,34.155643 221.664246,33.191742 223.105255,32.247242 
	C223.636520,31.522255 223.829178,31.273069 223.971466,30.984941 
	C224.151703,30.944599 224.331940,30.904255 225.166962,30.844730 
	C226.621933,30.851156 227.422089,30.876764 228.222244,30.902370 
	C227.512024,33.685825 226.801804,36.469280 225.788040,39.903927 
	C226.184341,42.649868 226.304749,45.917236 227.699188,46.606304 
	C231.072052,48.272980 241.183411,42.814392 243.042480,39.050816 
	C244.903793,37.057384 246.707047,35.004807 248.651321,33.095879 
	C249.600983,32.163456 250.813339,31.498592 252.228699,30.146284 
	C254.026917,28.391090 255.503235,27.202236 256.979553,26.013380 
	C259.708801,26.338957 262.438019,26.664536 265.815430,27.237846 
	C267.321564,27.639095 268.179504,27.792610 269.037476,27.946121 
	C273.116760,29.263216 277.196045,30.580313 281.843140,32.206955 
	C283.942261,33.343220 285.473541,34.169933 287.004822,34.996651 
	C288.759735,35.982964 290.514648,36.969273 292.694031,38.338837 
	C297.364227,42.748180 301.532196,46.862362 305.915833,50.732170 
	C306.889587,51.591766 308.623871,51.589878 310.007965,51.984642 
	C310.466309,51.997715 310.924683,52.010788 311.856445,52.192024 
	C312.524475,52.600441 312.754028,52.800621 313.018524,52.960735 
	C313.188263,53.534054 313.357971,54.107372 313.890503,55.070747 
	C314.460236,55.704899 314.715424,55.877907 315.018829,55.979832 
	C315.325348,55.876556 315.592529,55.710106 316.165771,55.268257 
	C316.511230,55.056030 316.948700,55.054371 316.948700,55.054371 
	C317.116364,55.065388 317.284027,55.076405 317.839050,55.267616 
	C318.433075,55.692039 318.680450,55.883640 318.968597,56.022606 
	C318.968597,56.022606 319.461334,56.054585 319.714203,56.277901 
	C319.967072,56.501213 319.965820,56.966942 319.842163,57.133987 
	C320.137878,57.581680 320.557251,57.862331 321.055542,58.464977 
	C323.080139,60.187099 325.025757,61.587223 326.971405,62.987339 
	C332.614685,64.209251 336.427704,67.185852 337.350250,73.272636 
	C337.529663,74.456528 338.710907,75.488594 339.753479,77.159447 
	C341.053894,79.485992 342.030853,81.243774 343.007812,83.001556 
z"/>
<path fill="#EB947E" opacity="1.000000" stroke="none" 
	d="
M311.829895,280.048370 
	C311.880157,285.152069 311.930420,290.255768 311.796875,296.181335 
	C311.454895,299.628235 311.182220,302.252319 311.159515,304.878540 
	C311.085358,313.455139 311.102264,322.032501 310.664612,330.730713 
	C308.773895,331.087799 307.290680,331.265839 305.833435,331.568756 
	C291.711578,334.504425 277.488617,334.382141 263.486664,331.504211 
	C240.557144,326.791382 222.063187,314.176239 206.741241,296.920959 
	C203.262131,293.002838 201.517639,287.544434 199.256470,283.004211 
	C207.848923,294.213867 219.127090,300.790649 232.314377,305.138794 
	C233.745941,305.537140 234.863449,305.786285 236.276123,306.279419 
	C241.709595,307.304688 246.847931,308.086029 252.274414,308.866394 
	C253.058762,308.613678 253.554932,308.361969 254.492462,308.097565 
	C258.289215,307.731262 261.644592,307.377655 265.410645,307.030823 
	C268.558441,306.375702 271.295563,305.713776 274.320862,305.021698 
	C275.090210,304.700745 275.571411,304.409973 276.434021,304.081604 
	C280.913300,302.047119 285.011108,300.050262 289.389435,298.024109 
	C290.128143,297.697174 290.586365,297.399567 291.384705,297.030762 
	C293.829193,295.320129 295.933502,293.680634 298.021454,292.027924 
	C298.005066,292.014740 298.041016,292.049500 298.378265,291.990662 
	C302.505402,287.970428 306.295288,284.008972 310.376007,280.046997 
	C311.054535,280.047089 311.442200,280.047729 311.829895,280.048370 
z"/>
<path fill="#F5C09D" opacity="1.000000" stroke="none" 
	d="
M153.977036,172.847610 
	C154.358505,169.782242 154.385361,166.607407 155.282623,163.701279 
	C155.684723,162.398834 155.728790,158.614624 159.698547,161.311035 
	C161.029221,166.908569 161.938904,171.954330 162.462387,177.017975 
	C156.924500,178.671463 159.405121,182.244019 159.500320,185.211197 
	C160.116287,185.371933 160.732239,185.532654 161.348206,185.693390 
	C161.919647,183.078140 162.491089,180.462906 163.423004,178.022034 
	C166.083130,186.966400 168.382751,195.736359 170.705063,204.592850 
	C175.350723,203.435791 178.142929,200.588287 178.887451,196.144287 
	C179.542877,192.231995 179.795898,188.233398 179.962723,184.261826 
	C180.395462,173.959198 180.254761,163.612503 181.164032,153.356186 
	C181.887756,145.192688 183.822906,137.136597 185.386597,129.162598 
	C185.755234,129.495056 185.904877,129.731140 186.001465,130.437927 
	C186.334259,139.250153 186.667435,147.625076 187.000412,156.428467 
	C187.000137,158.571289 187.000076,160.285645 186.624939,162.018921 
	C185.499924,163.358551 184.749969,164.679276 183.648193,166.098221 
	C181.524323,168.374237 180.833679,170.420914 184.001877,172.394592 
	C184.487381,174.496155 184.698563,176.345657 185.503571,177.884506 
	C188.399307,183.419830 188.743286,189.099152 186.634033,194.909088 
	C185.136078,190.842636 184.004089,186.867111 182.872101,182.891586 
	C182.581116,182.876083 182.290146,182.860565 181.999161,182.845047 
	C181.999161,187.896530 181.999161,192.947998 182.092560,198.284424 
	C182.291245,200.600266 182.160889,202.680191 182.570190,204.647842 
	C182.955551,206.500427 183.909836,208.234665 184.613831,210.020950 
	C182.742569,209.680634 180.871277,209.340317 178.986572,208.647583 
	C176.726959,205.321671 172.715332,205.258179 170.945831,208.215790 
	C170.117554,209.600220 169.794876,211.545792 168.629791,212.415482 
	C166.299957,214.154678 164.869507,216.400101 166.772415,218.481613 
	C167.637543,219.427933 170.851486,218.226959 173.337555,218.010880 
	C175.783401,220.347839 177.891708,222.673920 179.982452,225.377167 
	C177.196930,229.355560 178.053680,232.590744 181.034836,235.535278 
	C181.862946,236.353195 182.895157,236.964493 183.833710,237.670593 
	C184.517441,236.625107 185.659531,235.638657 185.803162,234.523621 
	C186.338425,230.368317 184.338242,227.301956 181.196625,224.683807 
	C184.425629,222.131317 187.380585,222.160965 189.461578,225.425369 
	C192.063889,229.507507 189.939621,241.769379 186.255829,244.824249 
	C182.719467,247.756821 183.549377,250.553864 186.676208,254.723068 
	C187.787354,251.769943 188.300964,249.597351 189.390518,247.767746 
	C190.243484,246.335464 191.694962,245.139893 193.136887,244.258560 
	C193.518646,244.025208 195.625748,245.382843 195.595764,245.937195 
	C195.503571,247.641418 195.282639,250.188599 194.180756,250.844727 
	C188.691406,254.113510 191.594925,259.951263 188.696121,264.751953 
	C195.495270,262.282715 196.305862,265.604767 196.060760,270.293823 
	C195.997223,271.509521 196.667038,272.763580 196.958694,274.307739 
	C196.564514,275.106262 196.211639,275.597107 195.639450,276.110718 
	C195.420151,276.133514 194.979996,276.106720 194.979996,276.106720 
	C190.732208,268.944000 185.603790,262.143829 182.466812,254.523788 
	C178.813370,245.649292 176.902374,236.057480 174.194916,226.636627 
	C169.964294,228.211624 166.126358,226.214966 164.175293,222.209106 
	C160.468735,214.598953 157.526749,206.616394 154.452301,198.413483 
	C154.637390,198.038467 155.129608,198.030182 155.477173,198.037048 
	C158.216492,200.029266 160.608246,202.014633 162.999725,204.406433 
	C162.821274,206.992859 162.643097,209.172836 162.464905,211.352814 
	C162.892471,211.531555 163.320038,211.710312 163.747604,211.889053 
	C164.773285,210.045975 166.012665,208.269531 166.627487,206.298309 
	C166.738037,205.943817 164.274887,204.786591 163.000305,203.607620 
	C163.667358,201.143616 164.334106,199.071976 165.248566,196.727661 
	C165.593399,194.896835 165.690552,193.338684 165.787689,191.780518 
	C165.298904,191.755569 164.810104,191.730606 164.321320,191.705643 
	C164.213806,193.136490 164.106293,194.567322 163.666077,196.146820 
	C161.859207,195.917831 160.332596,195.674377 158.925720,195.124527 
	C157.541168,194.583389 156.278046,193.731491 154.706085,192.689209 
	C154.301727,190.573700 154.049957,188.786407 154.024094,186.995880 
	C153.956009,182.280548 153.986053,177.563797 153.977036,172.847610 
M159.677383,169.057129 
	C156.282684,169.019867 155.481003,171.018661 157.919968,175.613907 
	C158.721176,173.212921 159.297333,171.486313 159.677383,169.057129 
z"/>
<path fill="#1C100B" opacity="1.000000" stroke="none" 
	d="
M185.220276,129.032822 
	C183.822906,137.136597 181.887756,145.192688 181.164032,153.356186 
	C180.254761,163.612503 180.395462,173.959198 179.962723,184.261826 
	C179.795898,188.233398 179.542877,192.231995 178.887451,196.144287 
	C178.142929,200.588287 175.350723,203.435791 170.705063,204.592850 
	C168.382751,195.736359 166.083130,186.966400 163.400757,177.802246 
	C163.018005,177.408051 162.848572,177.000092 162.848572,177.000092 
	C161.938904,171.954330 161.029221,166.908569 160.034470,161.441299 
	C160.418015,161.014725 160.886627,161.009659 161.707840,161.014328 
	C164.699234,170.950424 167.317734,180.882233 169.989136,190.799789 
	C170.795837,193.794662 171.749298,196.750015 172.635513,199.723465 
	C173.217422,199.841537 173.799332,199.959595 174.381226,200.077667 
	C175.246323,197.368881 176.710968,194.694778 176.870026,191.945145 
	C177.474396,181.498276 177.287582,170.998810 178.083435,160.571442 
	C179.269348,145.033493 179.914673,129.140762 187.595078,115.118736 
	C196.730362,98.440536 210.157516,86.708992 229.993256,85.106209 
	C245.206757,83.876923 260.506134,83.741455 275.759125,82.960152 
	C288.614014,82.301689 299.492065,78.152733 305.149628,65.356094 
	C305.374603,64.847267 306.007355,64.518723 307.195496,63.411648 
	C307.313385,65.238609 307.580750,66.253014 307.409454,67.186966 
	C303.495453,88.526825 307.735504,108.498230 317.815674,127.359627 
	C319.980347,131.410049 323.006531,135.114807 326.157104,138.492630 
	C329.585541,142.168396 331.047211,146.252960 331.026489,151.137177 
	C330.974243,163.466705 330.877899,175.798828 331.089050,188.124954 
	C331.148590,191.600830 332.209076,195.059586 333.625610,198.537079 
	C339.334656,187.744720 342.387177,176.346649 345.321777,164.337524 
	C345.770355,162.911911 345.885681,161.947083 346.000977,160.982269 
	C346.162476,160.457611 346.323975,159.932953 346.689545,159.222809 
	C347.082733,159.034698 347.271881,159.032059 347.752716,159.414062 
	C348.062073,160.325363 348.079712,160.852005 348.138336,161.778351 
	C347.296753,166.313248 346.414215,170.448441 345.351624,174.916351 
	C342.496429,183.499603 339.821259,191.750107 337.032837,200.236023 
	C336.630951,201.227997 336.342346,201.984558 336.025024,202.775146 
	C335.996277,202.809158 335.929901,202.944077 335.620789,202.987976 
	C330.179565,201.835831 329.156219,197.469513 328.984131,193.427322 
	C328.467926,181.302414 328.060577,169.138123 328.486298,157.019958 
	C328.774597,148.814392 327.214722,141.897079 320.704285,136.454590 
	C320.689789,136.362518 320.536682,136.256104 320.394409,135.968262 
	C318.564606,133.232956 316.877106,130.785507 315.208191,128.220184 
	C315.226776,128.102295 315.007263,128.008560 314.968109,127.690567 
	C314.657257,127.055046 314.385559,126.737518 314.116760,126.190765 
	C313.868469,125.599548 313.617279,125.237549 313.248901,124.601364 
	C312.770935,124.166740 312.410187,124.006302 312.047302,123.900269 
	C312.045197,123.954681 312.153992,123.949203 312.100006,123.630844 
	C311.714844,122.828255 311.383667,122.344025 311.032898,121.637474 
	C311.013306,121.415154 310.881165,120.988800 310.927612,120.707993 
	C310.672729,120.215179 310.371368,120.003189 310.073181,119.586937 
	C310.076324,119.382675 309.932953,119.000092 310.030060,118.624680 
	C309.096802,115.806335 308.066467,113.363403 307.005920,110.688347 
	C306.975769,110.456230 306.864777,110.001450 306.958740,109.607330 
	C306.049255,105.770958 305.045776,102.328705 304.022247,98.569992 
	C303.944672,97.836227 303.887177,97.418922 303.936584,96.605270 
	C303.713776,94.757401 303.384033,93.305878 303.031738,91.628944 
	C303.009155,91.403534 302.848663,90.979836 302.914856,90.614044 
	C302.928436,89.509682 302.875793,88.771095 302.886261,87.585724 
	C302.953278,85.509644 303.159454,83.847557 302.902161,82.260605 
	C302.661957,80.778809 301.929596,79.376793 301.413879,77.939659 
	C299.898682,78.604591 298.383484,79.269524 296.501953,79.944855 
	C288.997101,85.062225 280.612579,85.057335 272.401733,85.673599 
	C265.921051,86.160011 259.427368,86.473137 252.571274,86.900520 
	C251.468628,87.004852 250.734161,87.071892 249.536713,87.071991 
	C243.379059,87.336830 237.687180,87.872299 231.989014,87.950218 
	C224.406113,88.053902 217.484955,90.242065 210.626114,93.907013 
	C209.910583,94.418816 209.457153,94.787102 208.667343,95.171181 
	C204.243500,99.124428 200.156021,103.061897 195.951813,107.113052 
	C195.835114,107.226753 195.873154,107.550392 195.612579,107.705017 
	C195.168747,108.211983 194.985489,108.564316 194.562195,109.028091 
	C194.057251,109.592285 193.792358,110.045052 193.626312,110.510605 
	C193.725143,110.523392 193.528244,110.554398 193.313141,110.707916 
	C192.967850,111.182159 192.837662,111.502876 192.763306,111.831848 
	C192.819153,111.840111 192.799377,111.728943 192.552216,111.859436 
	C192.179169,112.333427 192.053268,112.676918 191.841537,113.054207 
	C191.755722,113.088013 191.759598,113.272438 191.482483,113.505508 
	C190.210541,115.826706 189.215714,117.914825 188.029129,120.324326 
	C186.964996,123.441406 186.092636,126.237114 185.220276,129.032822 
z"/>
<path fill="#7FC2D0" opacity="1.000000" stroke="none" 
	d="
M29.818348,437.984497 
	C31.890070,438.318420 33.961674,438.943787 36.033527,438.944611 
	C144.671341,438.988037 253.309158,438.984192 361.946991,438.971588 
	C400.936554,438.967072 439.926147,438.928040 479.627106,438.910706 
	C480.509827,438.926575 480.681122,438.936462 480.852386,438.946350 
	C479.429138,439.300079 478.005981,439.963287 476.582672,439.963745 
	C339.668823,440.006561 202.754974,439.998413 65.841133,439.995453 
	C54.475677,439.995209 43.110058,440.034943 31.745087,439.964233 
	C30.837980,439.958618 29.935364,439.232727 29.266445,438.423279 
	C29.502226,438.004974 29.818346,437.984497 29.818348,437.984497 
z"/>
<path fill="#F5C09D" opacity="1.000000" stroke="none" 
	d="
M311.904449,279.680603 
	C311.442200,280.047729 311.054535,280.047089 310.003601,280.039795 
	C303.843658,282.411621 299.935883,286.284149 298.041016,292.049500 
	C298.041016,292.049500 298.005066,292.014740 297.655548,292.023621 
	C295.537354,292.688324 293.768677,293.344177 291.645050,293.985718 
	C290.734497,293.221588 289.722717,292.481598 289.706268,291.720093 
	C289.649994,289.119934 299.860992,276.133514 302.489563,276.313049 
	C307.200500,276.634796 306.640442,272.761414 307.893036,270.417328 
	C310.054565,271.007294 311.931335,275.473480 313.707916,270.713104 
	C314.501953,268.585541 309.439087,262.377960 307.000000,261.580750 
	C307.348450,258.877106 305.899658,255.588165 309.270752,255.359268 
	C311.574188,258.526276 313.515564,261.195465 315.456940,263.864655 
	C315.900177,263.606476 316.343414,263.348267 316.786652,263.090088 
	C316.608368,260.940399 316.430115,258.790710 316.338440,257.685425 
	C318.883209,256.585327 321.407135,256.316589 322.256317,254.982117 
	C325.597809,249.730942 325.434570,243.452942 322.188110,238.834259 
	C318.563934,233.678223 321.190613,233.082123 325.001587,232.376617 
	C324.738983,236.750946 326.864777,237.106781 329.962677,236.398315 
	C329.988800,237.594772 330.002716,238.392792 330.016632,239.190796 
	C330.016632,239.190796 330.015900,239.606079 329.708130,240.058868 
	C329.273743,241.412247 329.147156,242.312805 329.020569,243.213379 
	C329.020569,243.213379 329.030182,243.601776 328.723999,243.988953 
	C328.282928,244.968292 328.148071,245.560455 328.013214,246.152634 
	C325.929169,251.313202 324.127563,256.611908 321.688568,261.598877 
	C318.733490,267.641144 315.239685,273.419983 311.904449,279.680603 
z"/>
<path fill="#3890A3" opacity="1.000000" stroke="none" 
	d="
M311.084167,330.609589 
	C311.102264,322.032501 311.085358,313.455139 311.159515,304.878540 
	C311.182220,302.252319 311.454895,299.628235 311.786072,296.668945 
	C312.914368,297.020386 313.869690,297.706024 314.943909,298.677673 
	C314.369598,300.432617 313.071167,301.908447 313.087646,303.369415 
	C313.160583,309.832123 313.338562,316.318329 313.992096,322.743774 
	C314.887360,331.546356 310.995514,338.148499 304.326569,342.836914 
	C295.679321,348.916107 286.429260,354.137878 277.223022,359.376465 
	C281.259735,356.204803 285.580841,353.482788 289.748138,350.542755 
	C295.655945,346.374786 301.642517,342.277008 307.188385,337.660248 
	C309.111053,336.059692 309.820557,333.001831 311.084167,330.609589 
z"/>
<path fill="#3890A3" opacity="1.000000" stroke="none" 
	d="
M202.206436,340.844879 
	C196.713470,338.821259 194.150131,335.315735 194.093277,329.285675 
	C194.007614,320.198853 194.070953,311.110565 194.070953,301.045807 
	C189.447021,304.000244 185.555420,306.486755 181.296051,308.974731 
	C184.742065,305.695648 188.555862,302.415070 192.959625,299.028259 
	C194.292831,298.641724 195.036057,298.361450 195.826920,298.545563 
	C195.910782,307.007965 196.245773,315.019196 195.892960,322.999969 
	C195.585815,329.948029 196.277847,336.242310 202.206436,340.844879 
z"/>
<path fill="#0D0D0D" opacity="1.000000" stroke="none" 
	d="
M203.838318,41.876640 
	C204.009811,42.292320 204.039032,42.518623 203.941757,42.609463 
	C197.674805,48.461407 191.437241,54.345726 185.108276,60.130039 
	C180.379654,64.451759 175.531906,68.643143 170.421738,72.986038 
	C170.106277,73.079491 170.034286,72.615562 170.019318,72.005997 
	C169.981781,71.147415 169.959198,70.898392 169.936615,70.649368 
	C175.567749,65.795937 181.277771,61.030254 186.805069,56.061287 
	C191.223816,52.088890 195.370117,47.814495 199.751404,43.798576 
	C200.816315,42.822487 202.329773,42.335777 203.838318,41.876640 
z"/>
<path fill="#F2BF9E" opacity="1.000000" stroke="none" 
	d="
M353.033356,193.130722 
	C352.216797,205.200165 347.887665,215.794113 339.042511,224.944656 
	C336.598145,225.338791 334.848785,225.571274 333.323303,225.578949 
	C335.698151,223.902557 337.849091,222.450974 340.304199,220.830902 
	C342.072235,217.108414 343.536102,213.554443 345.355591,209.940887 
	C347.136719,207.253189 348.562286,204.625076 349.990326,201.591263 
	C348.995636,197.457458 347.998413,193.729340 347.422028,190.000900 
	C349.510315,189.999573 351.177795,189.998550 352.874847,190.388763 
	C352.947388,191.563568 352.990356,192.347153 353.033356,193.130722 
z"/>
<path fill="#F2BF9E" opacity="1.000000" stroke="none" 
	d="
M345.531708,174.583633 
	C346.414215,170.448441 347.296753,166.313248 348.344910,161.567596 
	C348.683716,160.864792 348.856934,160.772446 349.030151,160.680115 
	C350.030975,162.162155 351.031799,163.644196 352.127380,165.712585 
	C352.341949,166.623383 352.555237,166.865448 352.862000,167.025101 
	C352.862000,167.025101 353.017822,167.387772 352.979980,168.054138 
	C352.944794,171.815323 352.947479,174.910126 352.582367,178.003479 
	C351.476349,178.001358 350.738190,178.000687 349.875671,177.794159 
	C349.548492,177.331253 349.298065,177.134949 348.928284,176.671753 
	C347.928162,175.920181 346.999817,175.496277 345.937653,174.948914 
	C345.803864,174.825470 345.531708,174.583633 345.531708,174.583633 
z"/>
<path fill="#0D0D0D" opacity="1.000000" stroke="none" 
	d="
M242.699707,39.033997 
	C241.183411,42.814392 231.072052,48.272980 227.699188,46.606304 
	C226.304749,45.917236 226.184341,42.649868 225.733276,40.280994 
	C226.483643,39.750187 226.985245,39.493504 227.785263,39.554077 
	C228.083694,41.266819 228.083694,42.662304 228.083694,45.244801 
	C232.061874,43.227001 235.255768,41.607010 238.449646,39.987022 
	C239.752075,39.663738 241.054489,39.340458 242.699707,39.033997 
z"/>
<path fill="#E7E7E7" opacity="1.000000" stroke="none" 
	d="
M238.244812,39.653160 
	C235.255768,41.607010 232.061874,43.227001 228.083694,45.244801 
	C228.083694,42.662304 228.083694,41.266819 228.040848,39.435581 
	C228.619492,37.847092 229.108353,36.586243 229.920959,35.589275 
	C230.301758,35.122097 231.307144,35.164013 232.029465,34.975212 
	C232.564850,38.454552 235.664246,38.386307 238.244812,39.653160 
z"/>
<path fill="#3890A3" opacity="1.000000" stroke="none" 
	d="
M154.555481,336.918274 
	C152.887054,337.775665 150.869385,338.913239 148.702591,339.501953 
	C140.416962,341.753387 132.083344,343.828186 123.352890,345.958679 
	C131.414825,343.276428 139.878113,340.560547 148.378723,337.966980 
	C150.229874,337.402222 152.214569,337.275116 154.555481,336.918274 
z"/>
<path fill="#0D0D0D" opacity="1.000000" stroke="none" 
	d="
M309.868835,51.682308 
	C308.623871,51.589878 306.889587,51.591766 305.915833,50.732170 
	C301.532196,46.862362 297.364227,42.748180 293.026672,38.401215 
	C294.842255,38.744663 297.182770,38.923664 298.574615,40.165756 
	C302.501495,43.670189 306.038849,47.611092 309.868835,51.682308 
z"/>
<path fill="#3890A3" opacity="1.000000" stroke="none" 
	d="
M168.641571,321.063324 
	C165.468628,325.278534 161.987198,329.628357 158.141876,334.000702 
	C161.296356,329.748108 164.814728,325.473022 168.641571,321.063324 
z"/>
<path fill="#3890A3" opacity="1.000000" stroke="none" 
	d="
M179.652176,309.830017 
	C176.546066,313.504517 173.079559,317.225250 169.261948,320.950806 
	C172.371155,317.262451 175.831467,313.569336 179.652176,309.830017 
z"/>
<path fill="#0D0D0D" opacity="1.000000" stroke="none" 
	d="
M169.647400,74.024551 
	C167.587494,77.648537 165.150894,81.272583 162.376923,84.966217 
	C163.969986,81.050209 163.854584,75.721100 169.647400,74.024551 
z"/>
<path fill="#F3DDD1" opacity="1.000000" stroke="none" 
	d="
M153.577118,173.052399 
	C153.986053,177.563797 153.956009,182.280548 154.024094,186.995880 
	C154.049957,188.786407 154.301727,190.573700 154.712860,193.106064 
	C155.026657,195.243179 155.078140,196.636673 155.129608,198.030182 
	C155.129608,198.030182 154.637390,198.038467 154.391327,198.034561 
	C153.822571,189.772827 153.499893,181.515015 153.577118,173.052399 
z"/>
<path fill="#E7E7E7" opacity="1.000000" stroke="none" 
	d="
M195.779297,298.081146 
	C195.036057,298.361450 194.292831,298.641724 193.259338,298.850189 
	C196.420990,291.786346 194.493515,284.288025 194.998474,276.563538 
	C194.979996,276.106720 195.420151,276.133514 195.667999,276.433716 
	C195.964142,277.165833 196.012421,277.597748 196.031067,278.495422 
	C195.927399,285.334473 195.853348,291.707825 195.779297,298.081146 
z"/>
<path fill="#68BED8" opacity="1.000000" stroke="none" 
	d="
M29.875978,437.520966 
	C29.818346,437.984497 29.502226,438.004974 29.343864,438.007996 
	C29.118223,429.578644 29.050947,421.146271 29.086897,412.272400 
	C29.467340,418.241333 29.771429,424.650787 30.005846,431.062744 
	C30.078768,433.057434 29.962997,435.059021 29.875978,437.520966 
z"/>
<path fill="#68BED8" opacity="1.000000" stroke="none" 
	d="
M480.907135,438.486084 
	C480.681122,438.936462 480.509827,438.926575 480.084015,438.879517 
	C479.968689,430.064484 480.107849,421.286591 480.533569,412.185913 
	C480.867371,420.584045 480.914612,429.304932 480.907135,438.486084 
z"/>
<path fill="#F3DDD1" opacity="1.000000" stroke="none" 
	d="
M333.099396,225.803757 
	C334.848785,225.571274 336.598145,225.338791 338.728516,225.068665 
	C337.036316,226.099091 334.963104,227.167175 332.278046,228.550446 
	C331.899109,231.088577 331.324738,234.935776 330.383484,238.986893 
	C330.002716,238.392792 329.988800,237.594772 329.994629,236.004669 
	C330.042023,234.160400 330.069641,233.108231 330.325928,231.762970 
	C331.402863,229.581177 332.251129,227.692474 333.099396,225.803757 
z"/>
<path fill="#0D0D0D" opacity="1.000000" stroke="none" 
	d="
M257.222046,25.774578 
	C255.503235,27.202236 254.026917,28.391090 252.305389,29.792217 
	C250.682465,24.720613 252.139801,23.731434 261.685669,24.249348 
	C259.651062,24.869413 258.557770,25.202593 257.222046,25.774578 
z"/>
<path fill="#0D0D0D" opacity="1.000000" stroke="none" 
	d="
M327.276001,62.927734 
	C325.025757,61.587223 323.080139,60.187099 321.065613,58.178741 
	C320.997406,57.380646 320.998077,57.190781 320.999390,57.000458 
	C321.000000,57.000000 321.000488,56.999191 321.000488,56.999187 
	C323.374756,58.365181 325.765320,59.705311 328.082214,61.162548 
	C328.218628,61.248352 327.761536,62.277809 327.276001,62.927734 
z"/>
<path fill="#0D0D0D" opacity="1.000000" stroke="none" 
	d="
M287.160278,34.776115 
	C285.473541,34.169933 283.942261,33.343220 282.206024,32.261780 
	C282.907257,31.609873 284.324402,30.644520 284.627930,30.917477 
	C285.726196,31.905184 286.450348,33.308887 287.160278,34.776115 
z"/>
<path fill="#0D0D0D" opacity="1.000000" stroke="none" 
	d="
M343.334106,83.003189 
	C342.030853,81.243774 341.053894,79.485992 340.013306,77.392174 
	C341.616547,78.805214 343.283356,80.554283 344.976715,82.652451 
	C345.003235,83.001541 344.965271,83.044624 344.965271,83.044617 
	C344.530334,83.031349 344.095367,83.018082 343.334106,83.003189 
z"/>
<path fill="#F3DDD1" opacity="1.000000" stroke="none" 
	d="
M352.950195,178.004929 
	C352.947479,174.910126 352.944794,171.815323 352.978027,168.251495 
	C353.330505,171.881683 353.647003,175.980865 353.675232,180.547607 
	C353.386993,181.015167 352.935516,181.037460 352.946533,180.778809 
	C352.951324,180.347687 352.945038,180.175201 352.961426,179.670059 
	C352.972748,178.893234 352.961456,178.449081 352.950195,178.004929 
z"/>
<path fill="#0D0D0D" opacity="1.000000" stroke="none" 
	d="
M349.397095,144.002808 
	C349.335236,142.916245 349.647308,141.811157 349.972656,140.359161 
	C350.912079,140.664413 351.838287,141.316574 352.764496,141.968719 
	C351.766663,142.640579 350.768860,143.312424 349.397095,144.002808 
z"/>
<path fill="#0D0D0D" opacity="1.000000" stroke="none" 
	d="
M212.966614,36.798492 
	C212.235458,37.720131 211.463043,38.352242 210.350983,38.996269 
	C209.644730,38.384418 209.278107,37.760651 208.911484,37.136879 
	C210.249435,36.927578 211.587387,36.718273 212.966614,36.798492 
z"/>
<path fill="#F3DDD1" opacity="1.000000" stroke="none" 
	d="
M353.414734,192.929840 
	C352.990356,192.347153 352.947388,191.563568 352.912964,190.056091 
	C352.906555,188.886597 352.891541,188.441010 352.907074,187.594025 
	C352.939575,186.117462 352.941528,185.042297 353.166321,183.976807 
	C353.389191,183.986465 353.834930,184.004059 353.834961,184.004059 
	C353.821991,186.912354 353.809021,189.820663 353.414734,192.929840 
z"/>
<path fill="#0D0D0D" opacity="1.000000" stroke="none" 
	d="
M269.013367,27.598530 
	C268.179504,27.792610 267.321564,27.639095 266.232788,27.248804 
	C266.468079,26.425097 266.934204,25.838165 267.400360,25.251234 
	C267.929993,25.917801 268.459625,26.584368 269.013367,27.598530 
z"/>
<path fill="#0D0D0D" opacity="1.000000" stroke="none" 
	d="
M350.253632,103.092316 
	C349.965820,102.558670 349.952515,102.144135 349.920837,101.420792 
	C350.785461,101.744896 351.668488,102.377808 352.551544,103.010727 
	C351.877075,103.077637 351.202606,103.144539 350.253632,103.092316 
z"/>
<path fill="#0D0D0D" opacity="1.000000" stroke="none" 
	d="
M153.993317,129.226242 
	C154.064377,128.432693 154.129486,127.961189 154.194595,127.489677 
	C154.341888,127.481888 154.489197,127.474098 154.636490,127.466309 
	C154.636490,128.917618 154.636490,130.368942 154.636490,131.820251 
	C154.477814,131.832077 154.319122,131.843887 154.160446,131.855713 
	C154.102753,131.086563 154.045044,130.317429 153.993317,129.226242 
z"/>
<path fill="#0D0D0D" opacity="1.000000" stroke="none" 
	d="
M348.981201,151.985886 
	C349.552856,152.589737 350.149963,153.202377 350.703094,153.852402 
	C350.724274,153.877289 350.321808,154.262680 350.116760,154.480087 
	C349.745636,153.866257 349.374481,153.252441 348.988861,152.300995 
	C348.974396,151.963364 348.999054,152.001114 348.981201,151.985886 
z"/>
<path fill="#F5C09D" opacity="1.000000" stroke="none" 
	d="
M353.919769,183.806519 
	C353.834930,184.004059 353.389191,183.986465 352.953583,183.780212 
	C352.657166,182.728455 352.796326,181.882965 352.935516,181.037460 
	C352.935516,181.037460 353.386993,181.015167 353.612610,181.005615 
	C353.838226,180.996048 354.006866,181.390350 353.995178,181.945190 
	C354.002045,182.726822 354.020538,182.953629 354.039032,183.180420 
	C354.039032,183.180420 354.004608,183.608994 353.919769,183.806519 
z"/>
<path fill="#0D0D0D" opacity="1.000000" stroke="none" 
	d="
M158.712006,148.079880 
	C159.042130,148.433167 159.047379,148.832047 159.060532,149.527176 
	C158.467926,149.935349 157.867416,150.047241 157.266907,150.159149 
	C157.640305,149.481247 158.013718,148.803345 158.712006,148.079880 
z"/>
<path fill="#0D0D0D" opacity="1.000000" stroke="none" 
	d="
M352.411438,108.930534 
	C352.899719,109.218987 353.209991,109.680550 353.520233,110.142105 
	C353.231934,110.230347 352.713745,110.433739 352.691254,110.388840 
	C352.489105,109.985260 352.374023,109.538048 352.411438,108.930534 
z"/>
<path fill="#0D0D0D" opacity="1.000000" stroke="none" 
	d="
M353.385193,133.676575 
	C353.300049,134.310959 353.025299,134.773468 352.750549,135.235977 
	C352.559143,135.051727 352.181122,134.736664 352.204681,134.703064 
	C352.501251,134.279968 352.855804,133.897552 353.385193,133.676575 
z"/>
<path fill="#0D0D0D" opacity="1.000000" stroke="none" 
	d="
M348.406738,90.911057 
	C348.889343,91.201271 349.199310,91.670555 349.509308,92.139839 
	C349.224060,92.227638 348.708832,92.426804 348.689087,92.386017 
	C348.490845,91.976624 348.373932,91.527832 348.406738,90.911057 
z"/>
<path fill="#0D0D0D" opacity="1.000000" stroke="none" 
	d="
M228.257294,30.670769 
	C227.422089,30.876764 226.621933,30.851156 225.432434,30.765480 
	C226.126175,30.616663 227.209259,30.527916 228.257294,30.670769 
z"/>
<path fill="#0D0D0D" opacity="1.000000" stroke="none" 
	d="
M157.759857,99.098091 
	C158.058395,99.498718 158.053589,99.915703 158.045837,100.645439 
	C157.518402,100.729767 156.993942,100.501335 156.469467,100.272911 
	C156.798477,99.886757 157.127487,99.500603 157.759857,99.098091 
z"/>
<path fill="#0D0D0D" opacity="1.000000" stroke="none" 
	d="
M154.351669,113.077141 
	C154.659286,113.596603 154.773102,114.258438 154.886932,114.920265 
	C154.643921,114.941704 154.400894,114.963150 154.157883,114.984589 
	C154.157883,114.396225 154.157883,113.807869 154.351669,113.077141 
z"/>
<path fill="#F3DDD1" opacity="1.000000" stroke="none" 
	d="
M329.353333,243.046783 
	C329.147156,242.312805 329.273743,241.412247 329.627319,240.250153 
	C329.798248,240.952499 329.742188,241.916336 329.353333,243.046783 
z"/>
<path fill="#0D0D0D" opacity="1.000000" stroke="none" 
	d="
M315.009216,55.708794 
	C314.715424,55.877907 314.460236,55.704899 314.128723,55.264641 
	C314.235992,54.714039 314.467773,54.359608 314.699585,54.005165 
	C314.799561,54.482693 314.899567,54.960220 315.009216,55.708794 
z"/>
<path fill="#3890A3" opacity="1.000000" stroke="none" 
	d="
M156.725494,334.939453 
	C156.534515,335.497650 156.056580,336.173004 155.242233,336.898193 
	C155.416718,336.317566 155.927628,335.687073 156.725494,334.939453 
z"/>
<path fill="#0D0D0D" opacity="1.000000" stroke="none" 
	d="
M156.365021,143.978729 
	C156.574738,144.273376 156.607132,144.679886 156.639526,145.086411 
	C156.488922,144.754471 156.338318,144.422546 156.365021,143.978729 
z"/>
<path fill="#0D0D0D" opacity="1.000000" stroke="none" 
	d="
M155.624237,105.776505 
	C155.658112,105.807426 155.590363,105.745575 155.624237,105.776505 
z"/>
<path fill="#0D0D0D" opacity="1.000000" stroke="none" 
	d="
M158.379822,153.201294 
	C158.347076,153.171143 158.412582,153.231430 158.379822,153.201294 
z"/>
<path fill="#0D0D0D" opacity="1.000000" stroke="none" 
	d="
M349.010986,160.417206 
	C348.856934,160.772446 348.683716,160.864792 348.303955,161.167892 
	C348.079712,160.852005 348.062073,160.325363 348.036285,159.404999 
	C348.349365,159.392273 348.670593,159.773300 349.010986,160.417206 
z"/>
<path fill="#F3DDD1" opacity="1.000000" stroke="none" 
	d="
M328.331696,246.028809 
	C328.148071,245.560455 328.282928,244.968292 328.648621,244.167999 
	C328.803040,244.608246 328.726593,245.256622 328.331696,246.028809 
z"/>
<path fill="#3890A3" opacity="1.000000" stroke="none" 
	d="
M122.620056,345.954041 
	C122.405785,346.126678 121.851952,346.327850 121.113846,346.342529 
	C121.379890,346.098206 121.830193,346.040405 122.620056,345.954041 
z"/>
<path fill="#0D0D0D" opacity="1.000000" stroke="none" 
	d="
M346.907959,87.114761 
	C346.907959,87.114761 346.436707,87.055153 346.199677,87.036819 
	C345.962646,87.018478 346.001221,86.999916 345.989197,87.018654 
	C346.133331,86.613419 346.289459,86.189445 346.445557,85.765480 
	C346.636688,85.988403 346.827789,86.211319 347.014099,86.719414 
	C347.009338,87.004593 346.907959,87.114761 346.907959,87.114761 
z"/>
<path fill="#0D0D0D" opacity="1.000000" stroke="none" 
	d="
M155.417587,138.773209 
	C155.456787,138.749390 155.378387,138.797028 155.417587,138.773209 
z"/>
<path fill="#0D0D0D" opacity="1.000000" stroke="none" 
	d="
M350.458679,97.530029 
	C350.432281,97.482597 350.485077,97.577469 350.458679,97.530029 
z"/>
<path fill="#0D0D0D" opacity="1.000000" stroke="none" 
	d="
M223.758789,31.100737 
	C223.829178,31.273069 223.636520,31.522255 223.198746,31.868553 
	C223.100388,31.683914 223.281097,31.421221 223.758789,31.100737 
z"/>
<path fill="#0D0D0D" opacity="1.000000" stroke="none" 
	d="
M158.523239,93.533234 
	C158.483200,93.554123 158.563278,93.512344 158.523239,93.533234 
z"/>
<path fill="#0D0D0D" opacity="1.000000" stroke="none" 
	d="
M350.146790,148.905090 
	C349.997314,148.821823 350.008209,148.652924 350.038422,148.230682 
	C350.203766,148.155945 350.369476,148.323288 350.482178,148.520889 
	C350.510681,148.570877 350.370056,148.717346 350.146790,148.905090 
z"/>
<path fill="#0D0D0D" opacity="1.000000" stroke="none" 
	d="
M347.064484,86.953987 
	C347.211548,87.089600 347.303436,87.275818 347.395355,87.462029 
	C347.288727,87.430733 347.182068,87.399437 346.991699,87.241455 
	C346.907959,87.114761 347.009338,87.004593 347.064484,86.953987 
z"/>
<path fill="#F3DDD1" opacity="1.000000" stroke="none" 
	d="
M352.897949,166.743576 
	C352.555237,166.865448 352.341949,166.623383 352.118896,166.074677 
	C352.321747,166.054291 352.627838,166.258179 352.897949,166.743576 
z"/>
<path fill="#F3DDD1" opacity="1.000000" stroke="none" 
	d="
M354.322662,183.075470 
	C354.020538,182.953629 354.002045,182.726822 354.011719,182.158981 
	C354.228729,182.202133 354.417511,182.586334 354.322662,183.075470 
z"/>
<path fill="#0D0D0D" opacity="1.000000" stroke="none" 
	d="
M345.024780,82.982567 
	C345.144440,83.107063 345.242584,83.250542 345.340698,83.394012 
	C345.256470,83.356461 345.172211,83.318916 345.026611,83.162994 
	C344.965271,83.044624 345.003235,83.001541 345.024780,82.982567 
z"/>
<path fill="#1E1E1E" opacity="1.000000" stroke="none" 
	d="
M169.742935,70.820389 
	C169.959198,70.898392 169.981781,71.147415 169.994904,71.772522 
	C169.840042,71.762886 169.694641,71.377144 169.742935,70.820389 
z"/>
<path fill="#0D0D0D" opacity="1.000000" stroke="none" 
	d="
M312.919983,52.745922 
	C312.754028,52.800621 312.524475,52.600441 312.200043,52.171909 
	C312.384552,52.078392 312.634949,52.260883 312.919983,52.745922 
z"/>
<path fill="#0D0D0D" opacity="1.000000" stroke="none" 
	d="
M319.965820,56.966942 
	C319.965820,56.966942 319.967072,56.501213 319.960907,56.268803 
	C320.282867,56.125324 320.551636,56.303669 320.880737,56.785313 
	C321.000488,56.999191 321.000000,57.000000 320.740845,57.000610 
	C320.309723,56.989796 320.137756,56.978367 319.965820,56.966942 
z"/>
<path fill="#0D0D0D" opacity="1.000000" stroke="none" 
	d="
M318.857544,55.807693 
	C318.680450,55.883640 318.433075,55.692039 318.090790,55.254997 
	C318.280731,55.146889 318.544525,55.323753 318.857544,55.807693 
z"/>
<path fill="#0D0D0D" opacity="1.000000" stroke="none" 
	d="
M316.871185,54.900230 
	C316.948700,55.054371 316.511230,55.056030 316.293610,55.067863 
	C316.315216,54.968498 316.554443,54.857296 316.871185,54.900230 
z"/>
<path fill="#F5C09D" opacity="1.000000" stroke="none" 
	d="
M195.826935,298.545563 
	C195.853348,291.707825 195.927399,285.334473 196.255249,278.723969 
	C196.977097,279.663605 197.445160,280.840393 198.190720,282.029388 
	C198.653198,282.049896 198.838196,282.058197 199.012970,282.248779 
	C199.002777,282.431030 198.974731,282.795013 198.974731,282.795013 
	C201.517639,287.544434 203.262131,293.002838 206.741241,296.920959 
	C222.063187,314.176239 240.557144,326.791382 263.486664,331.504211 
	C277.488617,334.382141 291.711578,334.504425 305.833435,331.568756 
	C307.290680,331.265839 308.773895,331.087799 310.664612,330.730713 
	C309.820557,333.001831 309.111053,336.059692 307.188385,337.660248 
	C301.642517,342.277008 295.655945,346.374786 289.748138,350.542755 
	C285.580841,353.482788 281.259735,356.204803 276.867126,359.315735 
	C276.726929,359.607300 276.724091,359.640900 276.386719,359.727905 
	C264.254883,368.173462 258.049347,380.263092 253.712311,394.676147 
	C250.360199,384.289642 247.847137,374.729156 240.412720,367.674377 
	C240.412720,367.674377 240.377350,367.631256 240.268524,367.299622 
	C238.763733,365.663086 237.367783,364.358215 235.971832,363.053314 
	C235.971832,363.053314 235.997162,363.000000 235.876923,362.748535 
	C235.290787,362.200043 234.824890,361.903046 234.358978,361.606018 
	C234.358978,361.606018 234.065369,361.702850 234.062683,361.345703 
	C223.773544,354.527679 213.487091,348.066803 203.200623,341.605896 
	C203.076782,341.332397 202.881592,341.126465 202.410736,340.916534 
	C196.277847,336.242310 195.585815,329.948029 195.892960,322.999969 
	C196.245773,315.019196 195.910782,307.007965 195.826935,298.545563 
z"/>
<path fill="#3890A3" opacity="1.000000" stroke="none" 
	d="
M240.348923,368.030396 
	C247.847137,374.729156 250.360199,384.289642 253.712311,394.676147 
	C258.049347,380.263092 264.254883,368.173462 276.380951,359.743011 
	C275.930145,360.872040 275.364532,362.316498 274.331635,363.236237 
	C264.197021,372.260071 257.565643,383.178741 255.758987,396.798920 
	C255.651276,397.611023 255.321182,398.405731 255.009171,399.173859 
	C254.840637,399.588715 254.491058,399.930023 254.618347,399.752106 
	C249.899429,389.425598 245.092270,378.906006 240.348923,368.030396 
z"/>
<path fill="#3890A3" opacity="1.000000" stroke="none" 
	d="
M203.252441,341.957397 
	C213.487091,348.066803 223.773544,354.527679 234.201706,361.278076 
	C231.037369,359.919159 227.551743,358.550293 224.461441,356.565857 
	C217.307388,351.971832 210.344589,347.079987 203.252441,341.957397 
z"/>
<path fill="#3890A3" opacity="1.000000" stroke="none" 
	d="
M236.014618,363.400208 
	C237.367783,364.358215 238.763733,365.663086 240.250977,367.277924 
	C238.913986,366.307648 237.485703,365.027374 236.014618,363.400208 
z"/>
<path fill="#3890A3" opacity="1.000000" stroke="none" 
	d="
M234.387146,361.912872 
	C234.824890,361.903046 235.290787,362.200043 235.852356,362.764954 
	C235.437119,362.761780 234.926224,362.490753 234.387146,361.912872 
z"/>
<path fill="#0D0D0D" opacity="1.000000" stroke="none" 
	d="
M345.873688,161.276535 
	C345.885681,161.947083 345.770355,162.911911 345.348328,163.939529 
	C345.276550,163.191833 345.511475,162.381317 345.873688,161.276535 
z"/>
<path fill="#000000" opacity="1.000000" stroke="none" 
	d="
M319.842163,57.133987 
	C320.137756,56.978367 320.309723,56.989796 320.740234,57.001068 
	C320.998077,57.190781 320.997406,57.380646 320.986664,57.856743 
	C320.557251,57.862331 320.137878,57.581680 319.842163,57.133987 
z"/>
<path fill="#F6C09B" opacity="1.000000" stroke="none" 
	d="
M352.946533,180.778809 
	C352.796326,181.882965 352.657166,182.728455 352.730713,183.770554 
	C352.941528,185.042297 352.939575,186.117462 352.513977,187.595398 
	C350.393951,188.665848 348.697571,189.333542 347.001221,190.001221 
	C347.998413,193.729340 348.995636,197.457458 349.590210,201.592636 
	C347.248352,203.203201 345.038025,204.152176 343.528931,205.759521 
	C343.053223,206.266159 344.456635,208.537048 345.000000,210.000473 
	C343.536102,213.554443 342.072235,217.108414 340.154449,220.516174 
	C338.988678,219.582855 338.276825,218.795776 338.045197,218.539688 
	C336.428192,219.840927 335.214264,221.615707 333.788757,221.806046 
	C330.364502,222.263321 329.838470,224.237976 329.682159,227.036011 
	C328.577026,227.381332 327.788513,227.690659 326.999817,227.599670 
	C326.463959,225.632050 325.928284,224.064728 325.392639,222.497421 
	C324.827545,222.721909 323.821167,222.874283 323.770721,223.182877 
	C323.494812,224.871536 323.301025,226.608734 323.414124,228.306915 
	C323.453918,228.903839 324.443878,229.437469 325.000000,230.333328 
	C325.000000,231.111099 325.000000,231.555557 325.000000,232.000000 
	C321.190613,233.082123 318.563934,233.678223 322.188110,238.834259 
	C325.434570,243.452942 325.597809,249.730942 322.256317,254.982117 
	C321.407135,256.316589 318.883209,256.585327 316.338440,257.685425 
	C316.430115,258.790710 316.608368,260.940399 316.786652,263.090088 
	C316.343414,263.348267 315.900177,263.606476 315.456940,263.864655 
	C313.515564,261.195465 311.574188,258.526276 309.270752,255.359268 
	C305.899658,255.588165 307.348450,258.877106 306.599915,261.583252 
	C305.385468,262.114502 304.055756,261.966705 303.849548,262.379791 
	C303.116241,263.848602 302.506897,265.494171 302.417664,267.104218 
	C302.388428,267.631897 304.085907,268.255280 304.993774,268.834900 
	C305.661621,267.549500 306.488220,266.317078 306.941101,264.959961 
	C307.239319,264.066254 306.999115,262.992920 307.000000,262.000000 
	C309.439087,262.377960 314.501953,268.585541 313.707916,270.713104 
	C311.931335,275.473480 310.054565,271.007294 307.893036,270.417328 
	C306.640442,272.761414 307.200500,276.634796 302.489563,276.313049 
	C299.860992,276.133514 289.649994,289.119934 289.706268,291.720093 
	C289.722717,292.481598 290.734497,293.221588 291.510925,294.284271 
	C291.502716,295.432037 291.273621,296.266998 291.044556,297.101929 
	C290.586365,297.399567 290.128143,297.697174 288.953857,298.007019 
	C284.825165,299.012787 281.412598,300.006409 278.044006,300.658447 
	C279.126648,297.915344 278.220825,296.133118 275.770599,296.360168 
	C274.182831,296.507324 272.740997,298.229675 271.233765,299.246185 
	C272.822510,300.164124 274.411255,301.082062 276.002563,302.352661 
	C276.020935,303.176605 276.036774,303.647919 276.052612,304.119202 
	C275.571411,304.409973 275.090210,304.700745 274.016815,304.750854 
	C270.616425,304.340118 267.808197,304.170074 264.659973,303.848267 
	C260.099152,303.374481 255.878372,303.052429 250.565887,302.647095 
	C252.347672,305.440094 253.199387,306.775177 254.051117,308.110229 
	C253.554932,308.361969 253.058762,308.613678 252.170563,308.528992 
	C248.284927,306.994537 244.855255,305.493713 241.268600,304.736389 
	C239.668793,304.398621 237.753220,305.556396 235.980957,306.035431 
	C234.863449,305.786285 233.745941,305.537140 232.303421,304.767365 
	C231.036606,299.900360 228.442932,297.846405 223.899155,297.927704 
	C222.019684,297.961304 219.793015,297.680389 218.302856,296.680328 
	C214.366501,294.038635 210.746536,290.925476 207.391129,287.996277 
	C212.896378,287.614685 210.761200,284.553040 209.998215,281.621796 
	C209.541016,279.937134 209.085587,278.630707 208.630157,277.324249 
	C208.112595,277.464325 207.595032,277.604431 207.077469,277.744507 
	C207.384979,279.163025 207.692490,280.581512 207.994400,282.332947 
	C207.659210,283.443939 207.329605,284.221954 206.639771,284.991028 
	C204.519897,283.987640 202.760254,282.993225 201.390961,281.995422 
	C208.037277,281.411804 203.054077,277.265198 204.208282,274.811646 
	C203.944382,273.748871 203.472183,272.874420 202.683243,272.035950 
	C201.577652,272.381287 200.788834,272.690643 199.667053,273.005615 
	C198.556061,273.340851 197.778030,273.670410 197.000000,274.000000 
	C196.667038,272.763580 195.997223,271.509521 196.060760,270.293823 
	C196.305862,265.604767 195.495270,262.282715 188.696121,264.751953 
	C191.594925,259.951263 188.691406,254.113510 194.180756,250.844727 
	C195.282639,250.188599 195.503571,247.641418 195.595764,245.937195 
	C195.625748,245.382843 193.518646,244.025208 193.136887,244.258560 
	C191.694962,245.139893 190.243484,246.335464 189.390518,247.767746 
	C188.300964,249.597351 187.787354,251.769943 186.676208,254.723068 
	C183.549377,250.553864 182.719467,247.756821 186.255829,244.824249 
	C189.939621,241.769379 192.063889,229.507507 189.461578,225.425369 
	C187.380585,222.160965 184.425629,222.131317 180.946625,224.683807 
	C180.500000,225.000000 180.000000,225.000000 180.000000,225.000000 
	C177.891708,222.673920 175.783401,220.347839 173.338959,217.631760 
	C175.001877,214.494507 177.000931,211.747253 179.000000,209.000000 
	C180.871277,209.340317 182.742569,209.680634 184.613831,210.020950 
	C183.909836,208.234665 182.955551,206.500427 182.570190,204.647842 
	C182.160889,202.680191 182.291245,200.600266 182.313141,198.091599 
	C183.248978,198.778442 184.057617,199.943069 184.866257,201.107681 
	C185.328552,200.911041 185.790833,200.714401 186.253128,200.517761 
	C186.502090,198.678497 186.751038,196.839249 187.000000,195.000000 
	C188.743286,189.099152 188.399307,183.419830 185.503571,177.884506 
	C184.698563,176.345657 184.487381,174.496155 184.049500,172.046112 
	C184.063492,169.535370 184.031754,167.767685 184.000000,166.000000 
	C184.749969,164.679276 185.499924,163.358551 186.958176,162.018921 
	C188.110764,162.000000 188.555084,162.000000 188.999557,162.466187 
	C189.497192,169.773895 187.062164,177.370117 194.156174,182.597183 
	C194.621338,181.011841 194.985092,178.812531 194.151733,178.172836 
	C190.263641,175.188385 191.169556,171.123489 190.960648,167.216354 
	C190.849243,165.133041 190.333344,163.071381 189.998444,160.621338 
	C188.998108,158.828506 187.999359,157.414261 187.000610,156.000000 
	C186.667435,147.625076 186.334259,139.250153 186.393616,130.462433 
	C188.014832,132.295517 189.243515,134.541412 190.749329,137.293854 
	C191.416290,133.631638 191.962769,130.631012 192.248825,129.060287 
	C190.924759,125.376732 189.963837,122.703453 189.355545,120.028976 
	C190.914536,120.171135 192.120911,120.314491 193.368271,120.462715 
	C192.785248,117.856789 192.272430,115.564613 191.759613,113.272438 
	C191.759598,113.272438 191.755722,113.088013 192.057755,112.892555 
	C192.506317,112.374374 192.652847,112.051659 192.799377,111.728943 
	C192.799377,111.728943 192.819153,111.840111 193.014893,111.709976 
	C193.316498,111.238022 193.422363,110.896210 193.528229,110.554398 
	C193.528244,110.554398 193.725143,110.523392 194.013657,110.604034 
	C196.575958,110.358894 199.096344,110.347443 199.158234,106.706276 
	C201.542526,103.954330 203.399261,100.306992 207.402023,104.402580 
	C207.825226,104.835609 209.887619,104.210709 210.714005,103.513206 
	C211.259552,103.052711 211.218063,101.514221 210.973206,100.580681 
	C210.487122,98.727547 209.678833,96.958931 209.003708,95.155396 
	C209.457153,94.787102 209.910583,94.418816 210.876129,94.189362 
	C213.081207,94.203468 214.796768,94.209282 216.461426,93.921143 
	C218.568146,93.556488 220.633469,92.952660 223.982117,92.147850 
	C225.836716,89.627922 236.523499,87.188324 241.756226,89.351944 
	C239.854721,90.975006 238.055435,92.510834 236.256134,94.046661 
	C236.319046,94.599800 236.381958,95.152939 236.444870,95.706078 
	C239.447205,95.810318 242.791672,96.827286 245.389862,95.853363 
	C254.378647,92.483925 263.292572,89.526291 273.072449,91.397507 
	C273.383240,92.596359 273.691620,93.798332 274.028198,95.407013 
	C274.477173,96.465324 274.879913,97.670181 275.321472,97.684570 
	C280.885223,97.865952 286.455811,97.928177 292.019714,97.803146 
	C292.367310,97.795334 292.674194,95.976349 293.223480,94.771927 
	C295.297974,95.362572 297.148987,96.181282 299.399811,96.999992 
	C300.865845,96.998924 301.932068,96.997864 303.206146,96.998398 
	C303.414001,97.000000 303.829681,97.001610 303.829681,97.001610 
	C303.887177,97.418922 303.944672,97.836227 303.960510,98.953056 
	C303.372955,101.011978 302.640289,102.328613 302.317322,103.739067 
	C301.463440,107.467735 301.941864,110.392891 306.864777,110.001450 
	C306.864777,110.001450 306.975769,110.456230 306.995789,111.096481 
	C305.856842,114.989685 304.697906,118.242645 303.243927,122.323746 
	C306.047058,120.930923 307.989990,119.965508 309.932953,119.000092 
	C309.932953,119.000092 310.076324,119.382675 310.153625,119.820351 
	C310.381622,120.560402 310.598358,120.803993 310.881165,120.988800 
	C310.881165,120.988800 311.013306,121.415154 311.057861,121.950516 
	C311.452942,122.973648 311.803467,123.461426 312.153992,123.949203 
	C312.153992,123.949203 312.045197,123.954681 312.204651,124.143570 
	C312.698090,124.513496 313.032074,124.694527 313.366089,124.875549 
	C313.617279,125.237549 313.868469,125.599548 314.187744,126.496536 
	C314.506317,127.357208 314.756775,127.682884 315.007263,128.008560 
	C315.007263,128.008560 315.226776,128.102295 315.164917,128.667877 
	C315.830566,132.412827 314.053619,137.529984 320.536682,136.256104 
	C320.536682,136.256104 320.689789,136.362518 320.530762,136.821579 
	C321.169159,141.536469 325.361267,145.090469 323.000793,150.436691 
	C323.000214,152.916397 323.000122,154.958511 323.000305,157.412903 
	C323.000824,163.883255 323.001038,169.941330 323.000793,176.448807 
	C321.791779,183.089340 325.143738,190.201843 319.278168,195.486588 
	C319.198792,195.558121 319.692169,196.265381 320.026855,196.873199 
	C322.075531,195.887955 324.037781,194.944275 326.149048,194.334229 
	C327.865356,197.778580 329.432678,200.889297 330.999817,204.250305 
	C330.999359,204.667480 330.999054,204.834351 330.665649,205.000916 
	C329.888336,205.000397 329.444183,205.000198 328.583344,205.000000 
	C326.777802,205.000000 325.388885,205.000000 323.990265,204.634506 
	C322.830963,203.008560 321.681366,201.748108 320.531799,200.487671 
	C320.092743,201.107559 319.653687,201.727448 319.214600,202.347351 
	C320.648621,203.230759 322.079559,204.119232 323.522247,204.988251 
	C323.640839,205.059692 323.838867,204.999191 324.001892,205.395126 
	C325.081635,212.620209 326.525696,213.220947 332.992340,209.529572 
	C334.940979,210.370773 336.636261,214.455612 338.997070,209.633408 
	C337.997711,207.845474 337.000092,206.422913 335.997375,204.485825 
	C335.971497,203.628891 335.950684,203.286484 335.929901,202.944077 
	C335.929901,202.944077 335.996277,202.809158 336.430664,202.771240 
	C338.242981,201.822006 339.620880,200.910706 341.000488,199.619781 
	C341.829987,195.264023 342.611755,191.277557 343.499359,187.314819 
	C344.272461,183.863251 345.165039,180.438446 346.379211,177.001236 
	C347.502350,177.000229 348.251190,176.999817 349.000000,176.999390 
	C349.298065,177.134949 349.548492,177.331253 349.948181,178.123016 
	C351.076324,179.106064 352.007538,179.554398 352.938782,180.002731 
	C352.945038,180.175201 352.951324,180.347687 352.946533,180.778809 
M193.851532,143.349792 
	C193.216568,143.032898 192.581604,142.715988 191.946640,142.399094 
	C191.631104,143.266068 191.315552,144.133026 191.000031,145.824387 
	C191.767487,147.715988 192.534958,149.607605 193.302414,151.499207 
	C193.807556,149.411819 194.360718,147.333771 194.770004,145.227753 
	C194.837296,144.881470 194.272614,144.412354 193.851532,143.349792 
M191.000031,196.829910 
	C191.362732,199.067566 191.725433,201.305237 192.088135,203.542892 
	C192.758636,203.507294 193.429123,203.471695 194.099625,203.436081 
	C194.399750,200.957382 194.699875,198.478699 194.904556,195.343796 
	C194.159195,194.700317 193.413818,194.056824 192.668457,193.413345 
	C192.112305,194.275558 191.556152,195.137787 191.000031,196.829910 
M310.424469,128.554840 
	C309.888977,127.780418 309.353455,127.005989 308.817993,126.231575 
	C308.212006,127.154182 307.606018,128.076797 306.710663,129.647095 
	C306.103729,134.911438 308.472168,138.484650 312.821960,138.238815 
	C311.865479,135.106659 310.933167,132.053604 310.424469,128.554840 
M269.217804,95.674606 
	C265.379181,95.674606 261.540527,95.674606 257.701904,95.674606 
	C257.697021,96.562546 257.692139,97.450493 257.687256,98.338432 
	C261.388702,98.396729 265.092590,98.527626 268.788025,98.405014 
	C269.172668,98.392258 269.507446,96.876045 269.217804,95.674606 
M278.045959,290.992035 
	C280.804932,290.992035 283.563873,290.992035 286.322845,290.992035 
	C286.321472,290.080170 286.320099,289.168274 286.318756,288.256409 
	C283.218018,288.256409 280.117249,288.256409 277.016510,288.256409 
	C277.092041,289.157257 277.167572,290.058075 278.045959,290.992035 
M313.580658,144.065155 
	C314.747772,144.753891 315.914886,145.442642 317.082001,146.131378 
	C316.952881,144.845490 316.823761,143.559586 316.694641,142.273712 
	C315.586609,142.655624 314.478607,143.037537 313.580658,144.065155 
M205.299057,112.413269 
	C205.524017,111.664207 206.022110,110.870422 205.908554,110.176781 
	C205.746887,109.189217 205.208344,108.227684 204.647934,107.375267 
	C204.551743,107.228958 203.158890,107.539749 203.032379,107.884369 
	C202.681274,108.840813 202.376617,110.014641 202.641739,110.932762 
	C202.849091,111.650864 203.935425,112.115158 205.299057,112.413269 
M306.717896,144.892105 
	C306.319946,144.022171 305.921997,143.152252 305.524017,142.282318 
	C305.094940,142.673660 304.665894,143.065002 304.236847,143.456345 
	C304.919922,144.098618 305.603027,144.740906 306.717896,144.892105 
M289.835632,273.403992 
	C289.794861,274.066528 289.754089,274.729034 289.713287,275.391571 
	C290.249329,275.206909 290.785370,275.022278 291.321411,274.837646 
	C291.015198,274.303589 290.708984,273.769562 289.835632,273.403992 
M231.414474,96.747276 
	C230.865524,96.686073 230.316574,96.624863 229.767624,96.563652 
	C229.762161,96.847153 229.756683,97.130646 229.751205,97.414146 
	C230.302246,97.369858 230.853287,97.325569 231.414474,96.747276 
z"/>
<path fill="#F7BF9B" opacity="1.000000" stroke="none" 
	d="
M201.000610,281.998779 
	C202.760254,282.993225 204.519897,283.987640 206.639771,285.366028 
	C207.000198,286.500000 207.000412,287.250000 207.000610,288.000000 
	C210.746536,290.925476 214.366501,294.038635 218.302856,296.680328 
	C219.793015,297.680389 222.019684,297.961304 223.899155,297.927704 
	C228.442932,297.846405 231.036606,299.900360 231.989365,304.618164 
	C219.127090,300.790649 207.848923,294.213867 199.256470,283.004211 
	C198.974731,282.795013 199.002777,282.431030 198.907806,282.094604 
	C198.512955,281.844543 198.213089,281.930878 197.913223,282.017212 
	C197.445160,280.840393 196.977097,279.663605 196.284882,278.258240 
	C196.012421,277.597748 195.964142,277.165833 195.887299,276.410950 
	C196.211639,275.597107 196.564514,275.106262 196.958694,274.307739 
	C197.778030,273.670410 198.556061,273.340851 199.667053,273.431976 
	C200.333527,276.568054 200.667068,279.283417 201.000610,281.998779 
z"/>
<path fill="#F5C09D" opacity="1.000000" stroke="none" 
	d="
M254.492462,308.097534 
	C253.199387,306.775177 252.347672,305.440094 250.565887,302.647095 
	C255.878372,303.052429 260.099152,303.374481 264.659973,304.226013 
	C265.000000,305.511658 265.000000,306.267853 265.000000,307.024048 
	C261.644592,307.377655 258.289215,307.731262 254.492462,308.097534 
z"/>
<path fill="#F7BF9B" opacity="1.000000" stroke="none" 
	d="
M298.378265,291.990662 
	C299.935883,286.284149 303.843658,282.411621 309.712769,280.040375 
	C306.295288,284.008972 302.505402,287.970428 298.378265,291.990662 
z"/>
<path fill="#F7BF9B" opacity="1.000000" stroke="none" 
	d="
M236.276123,306.279419 
	C237.753220,305.556396 239.668793,304.398621 241.268600,304.736389 
	C244.855255,305.493713 248.284927,306.994537 251.882385,308.529968 
	C246.847931,308.086029 241.709595,307.304688 236.276123,306.279419 
z"/>
<path fill="#F7BF9B" opacity="1.000000" stroke="none" 
	d="
M278.000000,301.000000 
	C281.412598,300.006409 284.825165,299.012787 288.673340,298.036316 
	C285.011108,300.050262 280.913300,302.047119 276.434021,304.081604 
	C276.036774,303.647919 276.020935,303.176605 276.293274,302.318787 
	C277.054291,301.621552 277.527130,301.310760 278.000000,301.000000 
z"/>
<path fill="#F7BF9B" opacity="1.000000" stroke="none" 
	d="
M265.410645,307.030823 
	C265.000000,306.267853 265.000000,305.511658 265.000000,304.377747 
	C267.808197,304.170074 270.616425,304.340118 273.728668,304.781006 
	C271.295563,305.713776 268.558441,306.375702 265.410645,307.030823 
z"/>
<path fill="#F7BF9B" opacity="1.000000" stroke="none" 
	d="
M291.384705,297.030762 
	C291.273621,296.266998 291.502716,295.432037 291.865906,294.298553 
	C293.768677,293.344177 295.537354,292.688324 297.671936,292.036804 
	C295.933502,293.680634 293.829193,295.320129 291.384705,297.030762 
z"/>
<path fill="#F6BF9B" opacity="1.000000" stroke="none" 
	d="
M178.986572,208.647583 
	C177.000931,211.747253 175.001877,214.494507 173.001404,217.620880 
	C170.851486,218.226959 167.637543,219.427933 166.772415,218.481613 
	C164.869507,216.400101 166.299957,214.154678 168.629791,212.415482 
	C169.794876,211.545792 170.117554,209.600220 170.945831,208.215790 
	C172.715332,205.258179 176.726959,205.321671 178.986572,208.647583 
z"/>
<path fill="#F6BF9B" opacity="1.000000" stroke="none" 
	d="
M179.982452,225.377167 
	C180.000000,225.000000 180.500000,225.000000 180.750000,225.000000 
	C184.338242,227.301956 186.338425,230.368317 185.803162,234.523621 
	C185.659531,235.638657 184.517441,236.625107 183.833710,237.670593 
	C182.895157,236.964493 181.862946,236.353195 181.034836,235.535278 
	C178.053680,232.590744 177.196930,229.355560 179.982452,225.377167 
z"/>
<path fill="#F6C09B" opacity="1.000000" stroke="none" 
	d="
M189.002914,120.030182 
	C189.963837,122.703453 190.924759,125.376732 192.248825,129.060287 
	C191.962769,130.631012 191.416290,133.631638 190.749329,137.293854 
	C189.243515,134.541412 188.014832,132.295517 186.393982,130.025116 
	C185.904877,129.731140 185.755234,129.495056 185.386597,129.162598 
	C186.092636,126.237114 186.964996,123.441406 188.224747,120.328156 
	C188.612122,120.010605 189.002914,120.030182 189.002914,120.030182 
z"/>
<path fill="#F6C09B" opacity="1.000000" stroke="none" 
	d="
M186.634033,194.909088 
	C186.751038,196.839249 186.502090,198.678497 186.253128,200.517761 
	C185.790833,200.714401 185.328552,200.911041 184.866257,201.107681 
	C184.057617,199.943069 183.248978,198.778442 182.219757,197.806656 
	C181.999161,192.947998 181.999161,187.896530 181.999161,182.845047 
	C182.290146,182.860565 182.581116,182.876083 182.872101,182.891586 
	C184.004089,186.867111 185.136078,190.842636 186.634033,194.909088 
z"/>
<path fill="#F7BF9B" opacity="1.000000" stroke="none" 
	d="
M155.477173,198.037048 
	C155.078140,196.636673 155.026657,195.243179 154.968414,193.432800 
	C156.278046,193.731491 157.541168,194.583389 158.925720,195.124527 
	C160.332596,195.674377 161.859207,195.917831 163.872131,196.271667 
	C164.668259,196.451080 164.864914,196.701904 165.000854,197.000351 
	C164.334106,199.071976 163.667358,201.143616 163.000305,203.607620 
	C160.608246,202.014633 158.216492,200.029266 155.477173,198.037048 
z"/>
<path fill="#F6C09B" opacity="1.000000" stroke="none" 
	d="
M162.462372,177.017975 
	C162.848572,177.000092 163.018005,177.408051 163.040268,177.627853 
	C162.491089,180.462906 161.919647,183.078140 161.348206,185.693390 
	C160.732239,185.532654 160.116287,185.371933 159.500320,185.211197 
	C159.405121,182.244019 156.924500,178.671463 162.462372,177.017975 
z"/>
<path fill="#F7BF9B" opacity="1.000000" stroke="none" 
	d="
M162.999725,204.406433 
	C164.274887,204.786591 166.738037,205.943817 166.627487,206.298309 
	C166.012665,208.269531 164.773285,210.045975 163.747604,211.889053 
	C163.320038,211.710312 162.892471,211.531555 162.464905,211.352814 
	C162.643097,209.172836 162.821274,206.992859 162.999725,204.406433 
z"/>
<path fill="#F6BF9B" opacity="1.000000" stroke="none" 
	d="
M159.775452,169.408417 
	C159.297333,171.486313 158.721176,173.212921 157.919968,175.613907 
	C155.481003,171.018661 156.282684,169.019867 159.775452,169.408417 
z"/>
<path fill="#F6C09B" opacity="1.000000" stroke="none" 
	d="
M188.999390,162.000000 
	C188.555084,162.000000 188.110764,162.000000 187.333221,162.000000 
	C187.000076,160.285645 187.000137,158.571289 187.000412,156.428467 
	C187.999359,157.414261 188.998108,158.828506 189.792603,160.745697 
	C189.331284,161.451492 189.134964,161.701950 188.999390,162.000000 
z"/>
<path fill="#F6C09B" opacity="1.000000" stroke="none" 
	d="
M183.648193,166.098221 
	C184.031754,167.767685 184.063492,169.535370 184.047623,171.651520 
	C180.833679,170.420914 181.524323,168.374237 183.648193,166.098221 
z"/>
<path fill="#F6BF9B" opacity="1.000000" stroke="none" 
	d="
M165.248566,196.727661 
	C164.864914,196.701904 164.668259,196.451080 164.204819,196.123016 
	C164.106293,194.567322 164.213806,193.136490 164.321320,191.705643 
	C164.810104,191.730606 165.298904,191.755569 165.787689,191.780518 
	C165.690552,193.338684 165.593399,194.896835 165.248566,196.727661 
z"/>
<path fill="#F5C09D" opacity="1.000000" stroke="none" 
	d="
M299.000000,97.000000 
	C297.148987,96.181282 295.297974,95.362572 292.755188,94.771927 
	C286.042297,95.000107 280.021149,95.000206 274.000000,95.000305 
	C273.691620,93.798332 273.383240,92.596359 273.072449,91.397507 
	C263.292572,89.526291 254.378647,92.483925 245.389862,95.853363 
	C242.791672,96.827286 239.447205,95.810318 236.444870,95.706078 
	C236.381958,95.152939 236.319046,94.599800 236.256134,94.046661 
	C238.055435,92.510834 239.854721,90.975006 241.756226,89.351944 
	C236.523499,87.188324 225.836716,89.627922 223.982117,92.147850 
	C220.633469,92.952660 218.568146,93.556488 216.461426,93.921143 
	C214.796768,94.209282 213.081207,94.203468 211.138245,94.045853 
	C217.484955,90.242065 224.406113,88.053902 231.989014,87.950218 
	C237.687180,87.872299 243.379059,87.336830 249.554993,87.425621 
	C251.125183,90.819145 253.024033,91.076164 256.064148,89.493988 
	C254.790848,88.421951 253.865143,87.642586 252.939453,86.863228 
	C259.427368,86.473137 265.921051,86.160011 272.401733,85.673599 
	C280.612579,85.057335 288.997101,85.062225 296.808594,80.117767 
	C299.841949,82.316399 298.922150,83.936028 296.514313,84.570793 
	C293.509918,85.362846 290.266296,85.284714 287.299652,86.166603 
	C285.893005,86.584747 284.724426,88.244110 283.792084,89.581093 
	C283.461884,90.054573 284.063721,91.932480 284.393311,91.974792 
	C285.531036,92.120811 287.314514,92.169525 287.820282,91.488731 
	C290.688354,87.628311 294.383820,89.657288 297.350677,90.521248 
	C298.437195,90.837662 298.480682,94.735779 299.000000,97.000000 
z"/>
<path fill="#F3BF9D" opacity="1.000000" stroke="none" 
	d="
M323.001221,175.999390 
	C323.001038,169.941330 323.000824,163.883255 323.360687,157.308655 
	C325.555267,154.308044 326.165161,151.953705 323.001221,149.999084 
	C325.361267,145.090469 321.169159,141.536469 320.545288,136.913666 
	C327.214722,141.897079 328.774597,148.814392 328.486298,157.019958 
	C328.060577,169.138123 328.467926,181.302414 328.984131,193.427322 
	C329.156219,197.469513 330.179565,201.835831 335.620789,202.987976 
	C335.950684,203.286484 335.971497,203.628891 335.996216,204.735428 
	C336.000183,205.499557 335.998779,205.998779 335.646912,205.986633 
	C333.863373,205.316315 332.431671,204.658157 331.000000,204.000000 
	C329.432678,200.889297 327.865356,197.778580 326.203644,193.961334 
	C325.513397,187.707947 324.933929,182.159119 324.269226,176.620529 
	C324.238770,176.366425 323.441406,176.204330 323.001221,175.999390 
z"/>
<path fill="#F6BF9B" opacity="1.000000" stroke="none" 
	d="
M299.399811,96.999992 
	C298.480682,94.735779 298.437195,90.837662 297.350677,90.521248 
	C294.383820,89.657288 290.688354,87.628311 287.820282,91.488731 
	C287.314514,92.169525 285.531036,92.120811 284.393311,91.974792 
	C284.063721,91.932480 283.461884,90.054573 283.792084,89.581093 
	C284.724426,88.244110 285.893005,86.584747 287.299652,86.166603 
	C290.266296,85.284714 293.509918,85.362846 296.514313,84.570793 
	C298.922150,83.936028 299.841949,82.316399 297.174957,80.107376 
	C298.383484,79.269524 299.898682,78.604591 301.413879,77.939659 
	C301.929596,79.376793 302.661957,80.778809 302.902161,82.260605 
	C303.159454,83.847557 302.953278,85.509644 302.693420,87.793976 
	C302.574524,89.292625 302.711578,90.136230 302.848663,90.979836 
	C302.848663,90.979836 303.009155,91.403534 303.015442,92.057983 
	C303.013947,94.140556 303.006134,95.568672 302.998291,96.996796 
	C301.932068,96.997864 300.865845,96.998924 299.399811,96.999992 
z"/>
<path fill="#F5C09D" opacity="1.000000" stroke="none" 
	d="
M208.667343,95.171173 
	C209.678833,96.958931 210.487122,98.727547 210.973206,100.580681 
	C211.218063,101.514221 211.259552,103.052711 210.714005,103.513206 
	C209.887619,104.210709 207.825226,104.835609 207.402023,104.402580 
	C203.399261,100.306992 201.542526,103.954330 198.791870,106.706635 
	C197.533966,107.000069 196.801254,106.999710 196.068527,106.999359 
	C200.156021,103.061897 204.243500,99.124428 208.667343,95.171173 
z"/>
<path fill="#F2BF9E" opacity="1.000000" stroke="none" 
	d="
M346.004883,177.001831 
	C345.165039,180.438446 344.272461,183.863251 343.499359,187.314819 
	C342.611755,191.277557 341.829987,195.264023 340.615265,199.620087 
	C339.200897,200.000214 338.173523,200.000427 337.146118,200.000626 
	C339.821259,191.750107 342.496429,183.499603 345.351624,174.916351 
	C345.531708,174.583633 345.803864,174.825470 345.916138,175.269577 
	C346.020569,176.143066 346.012726,176.572449 346.004883,177.001831 
z"/>
<path fill="#F5C09D" opacity="1.000000" stroke="none" 
	d="
M306.958740,109.607330 
	C301.941864,110.392891 301.463440,107.467735 302.317322,103.739067 
	C302.640289,102.328613 303.372955,101.011978 303.980591,99.269516 
	C305.045776,102.328705 306.049255,105.770958 306.958740,109.607330 
z"/>
<path fill="#F5C09D" opacity="1.000000" stroke="none" 
	d="
M310.030060,118.624680 
	C307.989990,119.965508 306.047058,120.930923 303.243927,122.323746 
	C304.697906,118.242645 305.856842,114.989685 307.025940,111.328598 
	C308.066467,113.363403 309.096802,115.806335 310.030060,118.624680 
z"/>
<path fill="#F3BF9D" opacity="1.000000" stroke="none" 
	d="
M320.394409,135.968262 
	C314.053619,137.529984 315.830566,132.412827 315.146301,128.785767 
	C316.877106,130.785507 318.564606,133.232956 320.394409,135.968262 
z"/>
<path fill="#F5C09D" opacity="1.000000" stroke="none" 
	d="
M189.355545,120.028976 
	C189.002914,120.030182 188.612122,120.010605 188.416504,120.006775 
	C189.215714,117.914825 190.210541,115.826706 191.482483,113.505508 
	C192.272430,115.564613 192.785248,117.856789 193.368271,120.462715 
	C192.120911,120.314491 190.914536,120.171135 189.355545,120.028976 
z"/>
<path fill="#F6C09B" opacity="1.000000" stroke="none" 
	d="
M252.571274,86.900520 
	C253.865143,87.642586 254.790848,88.421951 256.064148,89.493988 
	C253.024033,91.076164 251.125183,90.819145 250.017960,87.492554 
	C250.734161,87.071892 251.468628,87.004852 252.571274,86.900520 
z"/>
<path fill="#F6C09B" opacity="1.000000" stroke="none" 
	d="
M195.951813,107.113052 
	C196.801254,106.999710 197.533966,107.000069 198.633041,107.000061 
	C199.096344,110.347443 196.575958,110.358894 193.914825,110.591248 
	C193.792358,110.045052 194.057251,109.592285 194.816086,108.868210 
	C195.497742,108.248055 195.685455,107.899223 195.873169,107.550400 
	C195.873154,107.550392 195.835114,107.226753 195.951813,107.113052 
z"/>
<path fill="#F3BF9D" opacity="1.000000" stroke="none" 
	d="
M337.032837,200.236023 
	C338.173523,200.000427 339.200897,200.000214 340.613525,199.999695 
	C339.620880,200.910706 338.242981,201.822006 336.459412,202.737213 
	C336.342346,201.984558 336.630951,201.227997 337.032837,200.236023 
z"/>
<path fill="#F5C09D" opacity="1.000000" stroke="none" 
	d="
M303.206146,96.998398 
	C303.006134,95.568672 303.013947,94.140556 303.038025,92.283394 
	C303.384033,93.305878 303.713776,94.757401 303.936584,96.605270 
	C303.829681,97.001610 303.414001,97.000000 303.206146,96.998398 
z"/>
<path fill="#F5C09D" opacity="1.000000" stroke="none" 
	d="
M302.914856,90.614044 
	C302.711578,90.136230 302.574524,89.292625 302.630310,88.240768 
	C302.875793,88.771095 302.928436,89.509682 302.914856,90.614044 
z"/>
<path fill="#F5C09D" opacity="1.000000" stroke="none" 
	d="
M312.100006,123.630844 
	C311.803467,123.461426 311.452942,122.973648 311.077454,122.172836 
	C311.383667,122.344025 311.714844,122.828255 312.100006,123.630844 
z"/>
<path fill="#F5C09D" opacity="1.000000" stroke="none" 
	d="
M310.927612,120.707993 
	C310.598358,120.803993 310.381622,120.560402 310.150452,120.024612 
	C310.371368,120.003189 310.672729,120.215179 310.927612,120.707993 
z"/>
<path fill="#F3BF9D" opacity="1.000000" stroke="none" 
	d="
M314.968109,127.690567 
	C314.756775,127.682884 314.506317,127.357208 314.184845,126.725761 
	C314.385559,126.737518 314.657257,127.055046 314.968109,127.690567 
z"/>
<path fill="#F3BF9D" opacity="1.000000" stroke="none" 
	d="
M313.248901,124.601364 
	C313.032074,124.694527 312.698090,124.513496 312.206757,124.089165 
	C312.410187,124.006302 312.770935,124.166740 313.248901,124.601364 
z"/>
<path fill="#F6C09B" opacity="1.000000" stroke="none" 
	d="
M192.552216,111.859436 
	C192.652847,112.051659 192.506317,112.374374 192.143570,112.858749 
	C192.053268,112.676918 192.179169,112.333427 192.552216,111.859436 
z"/>
<path fill="#F6C09B" opacity="1.000000" stroke="none" 
	d="
M193.313141,110.707916 
	C193.422363,110.896210 193.316498,111.238022 192.959045,111.701721 
	C192.837662,111.502876 192.967850,111.182159 193.313141,110.707916 
z"/>
<path fill="#F5C09D" opacity="1.000000" stroke="none" 
	d="
M195.612579,107.705017 
	C195.685455,107.899223 195.497742,108.248055 195.056122,108.756767 
	C194.985489,108.564316 195.168747,108.211983 195.612579,107.705017 
z"/>
<path fill="#F7BF9B" opacity="1.000000" stroke="none" 
	d="
M327.000000,228.000000 
	C327.788513,227.690659 328.577026,227.381332 329.539185,227.356079 
	C329.840973,229.112122 329.969116,230.584091 330.097260,232.056076 
	C330.069641,233.108231 330.042023,234.160400 329.982422,235.606216 
	C326.864777,237.106781 324.738983,236.750946 325.001587,232.376617 
	C325.000000,231.555557 325.000000,231.111099 325.258362,230.201141 
	C326.011139,229.157089 326.505585,228.578552 327.000000,228.000000 
z"/>
<path fill="#F5C09D" opacity="1.000000" stroke="none" 
	d="
M330.325928,231.762970 
	C329.969116,230.584091 329.840973,229.112122 329.855774,227.320068 
	C329.838470,224.237976 330.364502,222.263321 333.788757,221.806046 
	C335.214264,221.615707 336.428192,219.840927 338.045197,218.539688 
	C338.276825,218.795776 338.988678,219.582855 339.850281,220.684662 
	C337.849091,222.450974 335.698151,223.902557 333.323303,225.578949 
	C332.251129,227.692474 331.402863,229.581177 330.325928,231.762970 
z"/>
<path fill="#F5C09D" opacity="1.000000" stroke="none" 
	d="
M345.355591,209.940887 
	C344.456635,208.537048 343.053223,206.266159 343.528931,205.759521 
	C345.038025,204.152176 347.248352,203.203201 349.587708,201.998322 
	C348.562286,204.625076 347.136719,207.253189 345.355591,209.940887 
z"/>
<path fill="#F5C09D" opacity="1.000000" stroke="none" 
	d="
M347.422028,190.000900 
	C348.697571,189.333542 350.393951,188.665848 352.483398,187.996796 
	C352.891541,188.441010 352.906555,188.886597 352.883423,189.664856 
	C351.177795,189.998550 349.510315,189.999573 347.422028,190.000900 
z"/>
<path fill="#F5C09D" opacity="1.000000" stroke="none" 
	d="
M346.379211,177.001236 
	C346.012726,176.572449 346.020569,176.143066 346.049927,175.393021 
	C346.999817,175.496277 347.928162,175.920181 348.928284,176.671753 
	C348.251190,176.999817 347.502350,177.000229 346.379211,177.001236 
z"/>
<path fill="#F5C09D" opacity="1.000000" stroke="none" 
	d="
M352.961426,179.670059 
	C352.007538,179.554398 351.076324,179.106064 350.072540,178.328857 
	C350.738190,178.000687 351.476349,178.001358 352.582336,178.003479 
	C352.961456,178.449081 352.972748,178.893234 352.961426,179.670059 
z"/>
<path fill="#EB947E" opacity="1.000000" stroke="none" 
	d="
M198.190720,282.029388 
	C198.213089,281.930878 198.512955,281.844543 198.917999,281.912354 
	C198.838196,282.058197 198.653198,282.049896 198.190720,282.029388 
z"/>
<path fill="#F5C09D" opacity="1.000000" stroke="none" 
	d="
M330.999817,204.250305 
	C332.431671,204.658157 333.863373,205.316315 335.656677,206.346878 
	C337.011810,207.812454 338.005280,208.905609 338.998779,209.998779 
	C336.636261,214.455612 334.940979,210.370773 332.992340,209.529572 
	C326.525696,213.220947 325.081635,212.620209 324.001892,205.395126 
	C325.388885,205.000000 326.777802,205.000000 328.634521,205.278290 
	C329.416199,205.850647 329.730011,206.144730 330.043854,206.438812 
	C330.362183,205.959625 330.680481,205.480423 330.998779,205.001221 
	C330.999054,204.834351 330.999359,204.667480 330.999817,204.250305 
z"/>
<path fill="#F5C09D" opacity="1.000000" stroke="none" 
	d="
M323.000793,176.448807 
	C323.441406,176.204330 324.238770,176.366425 324.269226,176.620529 
	C324.933929,182.159119 325.513397,187.707947 326.054626,193.627716 
	C324.037781,194.944275 322.075531,195.887955 320.026855,196.873199 
	C319.692169,196.265381 319.198792,195.558121 319.278168,195.486588 
	C325.143738,190.201843 321.791779,183.089340 323.000793,176.448807 
z"/>
<path fill="#F6BF9B" opacity="1.000000" stroke="none" 
	d="
M274.028198,95.407013 
	C280.021149,95.000206 286.042297,95.000107 292.531738,95.000000 
	C292.674194,95.976349 292.367310,97.795334 292.019714,97.803146 
	C286.455811,97.928177 280.885223,97.865952 275.321472,97.684570 
	C274.879913,97.670181 274.477173,96.465324 274.028198,95.407013 
z"/>
<path fill="#F5C09D" opacity="1.000000" stroke="none" 
	d="
M188.999557,162.466187 
	C189.134964,161.701950 189.331284,161.451492 189.794159,161.124298 
	C190.333344,163.071381 190.849243,165.133041 190.960648,167.216354 
	C191.169556,171.123489 190.263641,175.188385 194.151733,178.172836 
	C194.985092,178.812531 194.621338,181.011841 194.156174,182.597183 
	C187.062164,177.370117 189.497192,169.773895 188.999557,162.466187 
z"/>
<path fill="#F5C09D" opacity="1.000000" stroke="none" 
	d="
M269.541565,95.866013 
	C269.507446,96.876045 269.172668,98.392258 268.788025,98.405014 
	C265.092590,98.527626 261.388702,98.396729 257.687256,98.338432 
	C257.692139,97.450493 257.697021,96.562546 257.701904,95.674606 
	C261.540527,95.674606 265.379181,95.674606 269.541565,95.866013 
z"/>
<path fill="#F5C09D" opacity="1.000000" stroke="none" 
	d="
M310.000854,129.000549 
	C310.933167,132.053604 311.865479,135.106659 312.821960,138.238815 
	C308.472168,138.484650 306.103729,134.911438 307.230408,129.323425 
	C308.500397,129.000031 309.250641,129.000290 310.000854,129.000549 
z"/>
<path fill="#F5C09D" opacity="1.000000" stroke="none" 
	d="
M278.044006,300.658447 
	C277.527130,301.310760 277.054291,301.621552 276.290710,301.966156 
	C274.411255,301.082062 272.822510,300.164124 271.233765,299.246185 
	C272.740997,298.229675 274.182831,296.507324 275.770599,296.360168 
	C278.220825,296.133118 279.126648,297.915344 278.044006,300.658447 
z"/>
<path fill="#F5C09D" opacity="1.000000" stroke="none" 
	d="
M201.390961,281.995422 
	C200.667068,279.283417 200.333527,276.568054 200.000000,273.426331 
	C200.788834,272.690643 201.577652,272.381287 202.688843,272.368896 
	C203.340805,273.443939 203.670395,274.221954 204.000000,275.000000 
	C203.054077,277.265198 208.037277,281.411804 201.390961,281.995422 
z"/>
<path fill="#F5C09D" opacity="1.000000" stroke="none" 
	d="
M306.599915,262.002502 
	C306.999115,262.992920 307.239319,264.066254 306.941101,264.959961 
	C306.488220,266.317078 305.661621,267.549500 304.993774,268.834900 
	C304.085907,268.255280 302.388428,267.631897 302.417664,267.104218 
	C302.506897,265.494171 303.116241,263.848602 303.849548,262.379791 
	C304.055756,261.966705 305.385468,262.114502 306.599915,262.002502 
z"/>
<path fill="#F5C09D" opacity="1.000000" stroke="none" 
	d="
M277.644531,290.975464 
	C277.167572,290.058075 277.092041,289.157257 277.016510,288.256409 
	C280.117249,288.256409 283.218018,288.256409 286.318756,288.256409 
	C286.320099,289.168274 286.321472,290.080170 286.322845,290.992035 
	C283.563873,290.992035 280.804932,290.992035 277.644531,290.975464 
z"/>
<path fill="#F5C09D" opacity="1.000000" stroke="none" 
	d="
M326.999817,227.599686 
	C326.505585,228.578552 326.011139,229.157089 325.258362,229.867813 
	C324.443878,229.437469 323.453918,228.903839 323.414124,228.306915 
	C323.301025,226.608734 323.494812,224.871536 323.770721,223.182877 
	C323.821167,222.874283 324.827545,222.721909 325.392639,222.497421 
	C325.928284,224.064728 326.463959,225.632050 326.999817,227.599686 
z"/>
<path fill="#F5C09D" opacity="1.000000" stroke="none" 
	d="
M195.000000,196.000000 
	C194.699875,198.478699 194.399750,200.957382 194.099625,203.436081 
	C193.429123,203.471695 192.758636,203.507294 192.088135,203.542892 
	C191.725433,201.305237 191.362732,199.067566 191.400009,196.414948 
	C192.866653,196.000000 193.933334,196.000000 195.000000,196.000000 
z"/>
<path fill="#F5C09D" opacity="1.000000" stroke="none" 
	d="
M194.000000,144.000000 
	C194.272614,144.412354 194.837296,144.881470 194.770004,145.227753 
	C194.360718,147.333771 193.807556,149.411819 193.302414,151.499207 
	C192.534958,149.607605 191.767487,147.715988 191.316772,145.376251 
	C192.422348,144.618759 193.211166,144.309387 194.000000,144.000000 
z"/>
<path fill="#F5C09D" opacity="1.000000" stroke="none" 
	d="
M313.475616,143.742310 
	C314.478607,143.037537 315.586609,142.655624 316.694641,142.273712 
	C316.823761,143.559586 316.952881,144.845490 317.082001,146.131378 
	C315.914886,145.442642 314.747772,144.753891 313.475616,143.742310 
z"/>
<path fill="#F5C09D" opacity="1.000000" stroke="none" 
	d="
M204.965149,112.552750 
	C203.935425,112.115158 202.849091,111.650864 202.641739,110.932762 
	C202.376617,110.014641 202.681274,108.840813 203.032379,107.884369 
	C203.158890,107.539749 204.551743,107.228958 204.647934,107.375267 
	C205.208344,108.227684 205.746887,109.189217 205.908554,110.176781 
	C206.022110,110.870422 205.524017,111.664207 204.965149,112.552750 
z"/>
<path fill="#F5C09D" opacity="1.000000" stroke="none" 
	d="
M323.990265,204.634506 
	C323.838867,204.999191 323.640839,205.059692 323.522247,204.988251 
	C322.079559,204.119232 320.648621,203.230759 319.214600,202.347351 
	C319.653687,201.727448 320.092743,201.107559 320.531799,200.487671 
	C321.681366,201.748108 322.830963,203.008560 323.990265,204.634506 
z"/>
<path fill="#F5C09D" opacity="1.000000" stroke="none" 
	d="
M207.391129,287.996277 
	C207.000412,287.250000 207.000198,286.500000 207.000000,285.375000 
	C207.329605,284.221954 207.659210,283.443939 208.327728,282.332947 
	C209.111099,282.000000 209.555557,282.000000 210.000000,282.000000 
	C210.761200,284.553040 212.896378,287.614685 207.391129,287.996277 
z"/>
<path fill="#F7BF9B" opacity="1.000000" stroke="none" 
	d="
M209.998215,281.621796 
	C209.555557,282.000000 209.111099,282.000000 208.333328,282.000000 
	C207.692490,280.581512 207.384979,279.163025 207.077469,277.744507 
	C207.595032,277.604431 208.112595,277.464325 208.630157,277.324249 
	C209.085587,278.630707 209.541016,279.937134 209.998215,281.621796 
z"/>
<path fill="#F5C09D" opacity="1.000000" stroke="none" 
	d="
M323.000793,150.436691 
	C326.165161,151.953705 325.555267,154.308044 323.360352,156.896362 
	C323.000122,154.958511 323.000214,152.916397 323.000793,150.436691 
z"/>
<path fill="#F2BF9E" opacity="1.000000" stroke="none" 
	d="
M338.997070,209.633408 
	C338.005280,208.905609 337.011810,207.812454 336.008545,206.359039 
	C335.998779,205.998779 336.000183,205.499557 336.001312,205.249954 
	C337.000092,206.422913 337.997711,207.845474 338.997070,209.633408 
z"/>
<path fill="#F3BF9D" opacity="1.000000" stroke="none" 
	d="
M310.212646,128.777695 
	C309.250641,129.000290 308.500397,129.000031 307.375122,128.999588 
	C307.606018,128.076797 308.212006,127.154182 308.817993,126.231567 
	C309.353455,127.005989 309.888977,127.780418 310.212646,128.777695 
z"/>
<path fill="#F5C09D" opacity="1.000000" stroke="none" 
	d="
M306.502014,145.137634 
	C305.603027,144.740906 304.919922,144.098618 304.236847,143.456329 
	C304.665894,143.065002 305.094940,142.673660 305.524017,142.282318 
	C305.921997,143.152252 306.319946,144.022171 306.502014,145.137634 
z"/>
<path fill="#F6C09B" opacity="1.000000" stroke="none" 
	d="
M194.952271,195.671906 
	C193.933334,196.000000 192.866653,196.000000 191.399994,196.000000 
	C191.556152,195.137787 192.112305,194.275558 192.668457,193.413345 
	C193.413818,194.056824 194.159195,194.700317 194.952271,195.671906 
z"/>
<path fill="#F5C09D" opacity="1.000000" stroke="none" 
	d="
M290.119202,273.319763 
	C290.708984,273.769562 291.015198,274.303589 291.321411,274.837646 
	C290.785370,275.022278 290.249329,275.206909 289.713287,275.391571 
	C289.754089,274.729034 289.794861,274.066528 290.119202,273.319763 
z"/>
<path fill="#F6C09B" opacity="1.000000" stroke="none" 
	d="
M193.925766,143.674896 
	C193.211166,144.309387 192.422348,144.618759 191.316757,144.964066 
	C191.315552,144.133026 191.631104,143.266068 191.946640,142.399094 
	C192.581604,142.715988 193.216568,143.032898 193.925766,143.674896 
z"/>
<path fill="#F5C09D" opacity="1.000000" stroke="none" 
	d="
M231.409393,97.014282 
	C230.853287,97.325569 230.302246,97.369858 229.751205,97.414146 
	C229.756683,97.130646 229.762161,96.847153 229.767624,96.563652 
	C230.316574,96.624863 230.865524,96.686073 231.409393,97.014282 
z"/>
<path fill="#F7BF9B" opacity="1.000000" stroke="none" 
	d="
M204.208282,274.811646 
	C203.670395,274.221954 203.340805,273.443939 203.005615,272.332947 
	C203.472183,272.874420 203.944382,273.748871 204.208282,274.811646 
z"/>
<path fill="#F3BF9D" opacity="1.000000" stroke="none" 
	d="
M330.665649,205.000916 
	C330.680481,205.480423 330.362183,205.959625 330.043854,206.438812 
	C329.730011,206.144730 329.416199,205.850647 329.051178,205.278290 
	C329.444183,205.000198 329.888336,205.000397 330.665649,205.000916 
z"/>
</svg>